<?xml version="1.0" encoding="UTF-8" standalone="no"?>
<!-- Created with Inkscape (http://www.inkscape.org/) -->

<svg
   version="1.1"
   id="svg2085"
   xml:space="preserve"
   width="682.66669"
   height="682.66669"
   viewBox="0 0 682.66669 682.66669"
   xmlns="http://www.w3.org/2000/svg"
   xmlns:svg="http://www.w3.org/2000/svg"><defs
     id="defs2089"><clipPath
       clipPathUnits="userSpaceOnUse"
       id="clipPath2099"><path
         d="M 0,512 H 512 V 0 H 0 Z"
         id="path2097" /></clipPath><clipPath
       clipPathUnits="userSpaceOnUse"
       id="clipPath2123"><path
         d="M 0,512 H 512 V 0 H 0 Z"
         id="path2121" /></clipPath></defs><g
     id="g2091"
     transform="matrix(1.3333333,0,0,-1.3333333,0,682.66667)"><g
       id="g2093"><g
         id="g2095"
         clip-path="url(#clipPath2099)"><g
           id="g2101"
           transform="translate(271,100.6499)"><path
             d="M 0,0 V -93.15 H -30 V 0"
             style="fill:none;stroke:#000000;stroke-width:15;stroke-linecap:round;stroke-linejoin:round;stroke-miterlimit:10;stroke-dasharray:none;stroke-opacity:1"
             id="path2103" /></g></g></g><g
       id="g2105"
       transform="translate(271,410)"><path
         d="M 0,0 V 53.5"
         style="fill:none;stroke:#000000;stroke-width:15;stroke-linecap:round;stroke-linejoin:round;stroke-miterlimit:10;stroke-dasharray:none;stroke-opacity:1"
         id="path2107" /></g><g
       id="g2109"
       transform="translate(241,410)"><path
         d="M 0,0 V 53.5"
         style="fill:none;stroke:#000000;stroke-width:15;stroke-linecap:round;stroke-linejoin:round;stroke-miterlimit:10;stroke-dasharray:none;stroke-opacity:1"
         id="path2111" /></g><g
       id="g2113"
       transform="translate(106.54,463.5)"><path
         d="M 0,0 H -1.08"
         style="fill:none;stroke:#000000;stroke-width:15;stroke-linecap:round;stroke-linejoin:round;stroke-miterlimit:10;stroke-dasharray:none;stroke-opacity:1"
         id="path2115" /></g><g
       id="g2117"><g
         id="g2119"
         clip-path="url(#clipPath2123)"><g
           id="g2125"
           transform="translate(76.54,463.5)"><path
             d="m 0,0 h -8.54 c -8.28,0 -15,6.72 -15,15 0,4.14 1.68,7.89 4.4,10.6 2.71,2.72 6.46,4.4 10.6,4.4 H 0"
             style="fill:none;stroke:#000000;stroke-width:15;stroke-linecap:round;stroke-linejoin:round;stroke-miterlimit:10;stroke-dasharray:none;stroke-opacity:1"
             id="path2127" /></g><g
           id="g2129"
           transform="translate(376.54,463.5)"><path
             d="M 0,0 H -241.08"
             style="fill:none;stroke:#000000;stroke-width:15;stroke-linecap:round;stroke-linejoin:round;stroke-miterlimit:10;stroke-dasharray:none;stroke-opacity:1"
             id="path2131" /></g><g
           id="g2133"
           transform="translate(288.0771,493.5)"><path
             d="M 0,0 H -152.617"
             style="fill:none;stroke:#000000;stroke-width:15;stroke-linecap:round;stroke-linejoin:round;stroke-miterlimit:10;stroke-dasharray:none;stroke-opacity:1"
             id="path2135" /></g><g
           id="g2137"
           transform="translate(376.54,493.5)"><path
             d="M 0,0 H -56.463"
             style="fill:none;stroke:#000000;stroke-width:15;stroke-linecap:round;stroke-linejoin:round;stroke-miterlimit:10;stroke-dasharray:none;stroke-opacity:1"
             id="path2139" /></g><g
           id="g2141"
           transform="translate(106.54,493.5)"><path
             d="M 0,0 H -1.08"
             style="fill:none;stroke:#000000;stroke-width:15;stroke-linecap:round;stroke-linejoin:round;stroke-miterlimit:10;stroke-dasharray:none;stroke-opacity:1"
             id="path2143" /></g><g
           id="g2145"
           transform="translate(435.46,493.5)"><path
             d="m 0,0 h 8.54 c 8.28,0 15,-6.72 15,-15 0,-4.14 -1.68,-7.89 -4.4,-10.6 C 16.43,-28.32 12.68,-30 8.54,-30 H 0"
             style="fill:none;stroke:#000000;stroke-width:15;stroke-linecap:round;stroke-linejoin:round;stroke-miterlimit:10;stroke-dasharray:none;stroke-opacity:1"
             id="path2147" /></g><g
           id="g2149"
           transform="translate(406.54,463.5)"><path
             d="M 0,0 H -1.08"
             style="fill:none;stroke:#000000;stroke-width:15;stroke-linecap:round;stroke-linejoin:round;stroke-miterlimit:10;stroke-dasharray:none;stroke-opacity:1"
             id="path2151" /></g><g
           id="g2153"
           transform="translate(406.54,493.5)"><path
             d="M 0,0 H -1.08"
             style="fill:none;stroke:#000000;stroke-width:15;stroke-linecap:round;stroke-linejoin:round;stroke-miterlimit:10;stroke-dasharray:none;stroke-opacity:1"
             id="path2155" /></g><g
           id="g2157"
           transform="translate(91,452.5)"><path
             d="m 0,0 v 0 c -8.284,0 -15,6.716 -15,15 v 22 c 0,8.284 6.716,15 15,15 8.284,0 15,-6.716 15,-15 V 15 C 15,6.716 8.284,0 0,0 Z"
             style="fill:none;stroke:#000000;stroke-width:15;stroke-linecap:round;stroke-linejoin:round;stroke-miterlimit:10;stroke-dasharray:none;stroke-opacity:1"
             id="path2159" /></g><g
           id="g2161"
           transform="translate(121,452.5)"><path
             d="m 0,0 v 0 c -8.284,0 -15,6.716 -15,15 v 22 c 0,8.284 6.716,15 15,15 8.284,0 15,-6.716 15,-15 V 15 C 15,6.716 8.284,0 0,0 Z"
             style="fill:none;stroke:#000000;stroke-width:15;stroke-linecap:round;stroke-linejoin:round;stroke-miterlimit:10;stroke-dasharray:none;stroke-opacity:1"
             id="path2163" /></g><g
           id="g2165"
           transform="translate(391,452.5)"><path
             d="m 0,0 v 0 c -8.284,0 -15,6.716 -15,15 v 22 c 0,8.284 6.716,15 15,15 8.284,0 15,-6.716 15,-15 V 15 C 15,6.716 8.284,0 0,0 Z"
             style="fill:none;stroke:#000000;stroke-width:15;stroke-linecap:round;stroke-linejoin:round;stroke-miterlimit:10;stroke-dasharray:none;stroke-opacity:1"
             id="path2167" /></g><g
           id="g2169"
           transform="translate(421,452.5)"><path
             d="m 0,0 v 0 c -8.284,0 -15,6.716 -15,15 v 22 c 0,8.284 6.716,15 15,15 8.284,0 15,-6.716 15,-15 V 15 C 15,6.716 8.284,0 0,0 Z"
             style="fill:none;stroke:#000000;stroke-width:15;stroke-linecap:round;stroke-linejoin:round;stroke-miterlimit:10;stroke-dasharray:none;stroke-opacity:1"
             id="path2171" /></g><g
           id="g2173"
           transform="translate(313.2202,77.2954)"><path
             d="m 0,0 -57.22,31.653 -114,-63.063 v 305.73"
             style="fill:none;stroke:#000000;stroke-width:15;stroke-linecap:round;stroke-linejoin:round;stroke-miterlimit:10;stroke-dasharray:none;stroke-opacity:1"
             id="path2175" /></g><g
           id="g2177"
           transform="translate(142,383.9229)"><path
             d="m 0,0 v 26.077 h 228 v -364.114 l -28.795,15.929"
             style="fill:none;stroke:#000000;stroke-width:15;stroke-linecap:round;stroke-linejoin:round;stroke-miterlimit:10;stroke-dasharray:none;stroke-opacity:1"
             id="path2179" /></g><g
           id="g2181"
           transform="translate(131,410)"><path
             d="M 0,0 H 250"
             style="fill:none;stroke:#000000;stroke-width:15;stroke-linecap:round;stroke-linejoin:round;stroke-miterlimit:10;stroke-dasharray:none;stroke-opacity:1"
             id="path2183" /></g><g
           id="g2185"
           transform="translate(158,410)"><path
             d="M 0,0 98,53.5 196,0"
             style="fill:none;stroke:#000000;stroke-width:15;stroke-linecap:round;stroke-linejoin:round;stroke-miterlimit:10;stroke-dasharray:none;stroke-opacity:1"
             id="path2187" /></g><g
           id="g2189"
           transform="translate(181,328)"><path
             d="M 0,0 37.499,-20 74.996,0 112.498,-20 150,0"
             style="fill:none;stroke:#000000;stroke-width:15;stroke-linecap:round;stroke-linejoin:round;stroke-miterlimit:10;stroke-dasharray:none;stroke-opacity:1"
             id="path2191" /></g><g
           id="g2193"
           transform="translate(181,266)"><path
             d="M 0,0 37.499,-20 74.996,0 112.498,-20 150,0"
             style="fill:none;stroke:#000000;stroke-width:15;stroke-linecap:round;stroke-linejoin:round;stroke-miterlimit:10;stroke-dasharray:none;stroke-opacity:1"
             id="path2195" /></g><g
           id="g2197"
           transform="translate(181,204)"><path
             d="M 0,0 37.499,-20 74.996,0 112.498,-20 150,0"
             style="fill:none;stroke:#000000;stroke-width:15;stroke-linecap:round;stroke-linejoin:round;stroke-miterlimit:10;stroke-dasharray:none;stroke-opacity:1"
             id="path2199" /></g></g></g></g></svg>
