<svg width="107" height="164" viewBox="0 0 107 164" fill="none" xmlns="http://www.w3.org/2000/svg">
<path fill-rule="evenodd" clip-rule="evenodd" d="M103.097 163.802H97.3278C95.2066 163.802 93.4886 162.084 93.4886 159.963C93.4886 157.841 95.2065 156.123 97.3278 156.123H99.2577V32.9516H7.67797V34.2338C7.67797 36.355 5.96 38.073 3.83879 38.073C1.71949 38.073 0 36.3551 0 34.2338V29.1124C0 26.9916 1.71949 25.2736 3.83879 25.2736H103.097C105.218 25.2736 106.936 26.9916 106.936 29.1124V159.964C106.936 162.084 105.218 163.802 103.097 163.802ZM84.5307 163.802H3.84035C1.72104 163.802 0.00155622 162.084 0.00155622 159.963V47.0309C0.00155622 44.9097 1.72104 43.1917 3.84035 43.1917C5.96155 43.1917 7.67953 44.9096 7.67953 47.0309V156.125H84.5307C86.6519 156.125 88.3698 157.843 88.3698 159.964C88.3698 162.085 86.6519 163.802 84.5307 163.802Z" fill="#FEFEFE"/>
<path fill-rule="evenodd" clip-rule="evenodd" d="M89.6912 92.7451H17.2484C15.1272 92.7451 13.4092 91.0272 13.4092 88.906V45.8694C13.4092 43.7482 15.1272 42.0302 17.2484 42.0302H89.6912C91.8124 42.0302 93.5304 43.7482 93.5304 45.8694V88.906C93.5304 91.0272 91.8124 92.7451 89.6912 92.7451ZM21.0871 85.0668H85.8524V49.7086H21.0871V85.0668Z" fill="#FEFEFE"/>
<path fill-rule="evenodd" clip-rule="evenodd" d="M89.7324 107.49H17.2064C15.0855 107.49 13.3672 105.772 13.3672 103.651C13.3672 101.53 15.0855 99.8116 17.2064 99.8116H89.7324C91.8532 99.8116 93.5715 101.53 93.5715 103.651C93.5715 105.772 91.8532 107.49 89.7324 107.49Z" fill="#FEFEFE"/>
<path fill-rule="evenodd" clip-rule="evenodd" d="M89.7324 147.044H17.2064C15.0855 147.044 13.3672 145.326 13.3672 143.205C13.3672 141.084 15.0855 139.366 17.2064 139.366H89.7324C91.8532 139.366 93.5715 141.084 93.5715 143.205C93.5715 145.326 91.8532 147.044 89.7324 147.044Z" fill="#FEFEFE"/>
<path fill-rule="evenodd" clip-rule="evenodd" d="M89.7324 127.268H17.2064C15.0855 127.268 13.3672 125.55 13.3672 123.428C13.3672 121.307 15.0855 119.589 17.2064 119.589H89.7324C91.8532 119.589 93.5715 121.307 93.5715 123.428C93.5715 125.55 91.8532 127.268 89.7324 127.268Z" fill="#FEFEFE"/>
<path fill-rule="evenodd" clip-rule="evenodd" d="M103.097 32.9511H21.1562C19.0354 32.9511 17.3174 31.2317 17.3174 29.112V3.83897C17.3174 2.62097 17.8956 1.47401 18.8755 0.750699C19.8566 0.0266252 21.1244 -0.188783 22.2869 0.170608L104.228 25.4425C106.042 26.0022 107.177 27.8045 106.892 29.6827C106.611 31.5624 104.997 32.9511 103.097 32.9511ZM24.9969 25.2732H77.6233L24.9969 9.04203V25.2732Z" fill="#FEFEFE"/>
</svg>
