<svg enable-background="new 0 0 64 64" height="64" viewBox="0 0 64 64" width="64" xmlns="http://www.w3.org/2000/svg"><g id="_x35_0_strategy_x2C__plan_x2C__board_x2C__business_x2C__office_x2C__job_x2C__corporation"/><g id="_x34_9_shout_x2C__anger_x2C__boss_x2C__conflict_x2C__business_x2C__office_x2C__job"/><g id="_x34_8_certificate_x2C__diploma_x2C__reward_x2C__business_x2C__office_x2C__job_x2C__corporation"/><g id="_x34_7_deadline_x2C__fire_x2C__clock_x2C__time_x2C__calendar_x2C__business_x2C__office"/><g id="_x34_6_deadline_x2C__fire_x2C__clock_x2C__time_x2C__business_x2C__office_x2C__job"/><g id="_x34_5_business_x2C__call_x2C__phone_x2C__office_x2C__job_x2C__corporation"/><g id="_x34_4_global_x2C__vision_x2C__planet_x2C__earth_x2C__business_x2C__office_x2C__job"/><g id="_x34_3_coffee_x2C__break_x2C__time_x2C__clock_x2C__business_x2C__office_x2C__job"/><g id="_x34_2_hot_x2C__head_x2C__employee_x2C__stress_x2C__business_x2C__office_x2C__job"/><g id="_x34_1_repository_x2C__document_x2C__folder_x2C__data_x2C__business_x2C__office_x2C__job"/><g id="_x34_0_case_x2C__portfolio_x2C__work_x2C__business_x2C__office_x2C__job_x2C__corporation"/><g id="_x33_9_document_x2C__folder_x2C__data_x2C__business_x2C__office_x2C__job_x2C__corporation"/><g id="_x33_8_contract_x2C__sign_x2C__signature_x2C__pen_x2C__business_x2C__office_x2C__job"/><g id="_x33_7_document_x2C__table_x2C__mountain_x2C__business_x2C__office_x2C__job_x2C__corporation"/><g id="_x33_6_job_x2C__interview_x2C__employee_x2C__table_x2C__business_x2C__office_x2C__job"/><g id="_x33_5_resume_x2C__presentation_x2C__tablet_x2C__business_x2C__office_x2C__job_x2C__corporation"/><g id="_x33_4_corporate_x2C__messenger_x2C__case_x2C__chat_x2C__business_x2C__office_x2C__job"/><g id="_x33_3_discovery_x2C__mountain_x2C__flag_x2C__peak_x2C__business_x2C__office_x2C__job"/><g id="_x33_2_manager_x2C__management_x2C__delegation_x2C__employee_x2C__business_x2C__office_x2C__job"/><g id="_x33_1_hierarchy_x2C__boss_x2C__employee_x2C__subordinate_x2C__business_x2C__office_x2C__job"/><g id="_x33_0_brainstorm_x2C__storm_x2C__idea_x2C__work_x2C__business_x2C__office_x2C__job"/><g id="_x32_9_team_x2C__portfolio_x2C__people_x2C__work_x2C__business_x2C__office_x2C__job"/><g id="_x32_8_case_x2C__team_x2C__portfolio_x2C__people_x2C__business_x2C__office_x2C__job"/><g id="_x32_7_outsourcing_x2C__freelancing_x2C__freelancer_x2C__team_x2C__business_x2C__office_x2C__job"/><g id="_x32_6_head_x2C__hunter_x2C__search_x2C__employee_x2C__site_x2C__business_x2C__office"/><g id="_x32_5_head_x2C__hunter_x2C__search_x2C__employee_x2C__business_x2C__office_x2C__job"/><g id="_x32_4_training_x2C__book_x2C__case_x2C__lecture_x2C__business_x2C__office_x2C__job"/><g id="_x32_3_projector_x2C__presentation_x2C__business_x2C__office_x2C__job_x2C__corporation"/><g id="_x32_2_video_x2C__call_x2C__conference_x2C__talk_x2C__microphone_x2C__business_x2C__office"/><g id="_x32_1_skill_x2C__team_x2C__competence_x2C__business_x2C__office_x2C__job_x2C__corporation"/><g id="_x32_0_hand_x2C__shake_x2C__partnership_x2C__deal_x2C__business_x2C__office_x2C__job"/><g id="_x31_9_speech_x2C__presentation_x2C__microphone_x2C__business_x2C__office_x2C__job_x2C__corporation"/><g id="_x31_8_presentation_x2C__lecture_x2C__training_x2C__business_x2C__office_x2C__job_x2C__corporation"/><g id="_x31_7_career_x2C__ladder_x2C__arrow_x2C__chief_x2C__business_x2C__office_x2C__job"/><g id="_x31_6_workplace_x2C__employee_x2C__laptop_x2C__business_x2C__office_x2C__job_x2C__corporation"/><g id="_x31_5_notebook_x2C__pen_x2C__note_x2C__business_x2C__office_x2C__job_x2C__corporation"/><g id="_x31_4_computer_x2C__keyboard_x2C__table_x2C__workplace_x2C__business_x2C__office_x2C__job"/><g id="_x31_3_finish_x2C__victory_x2C__winner_x2C__business_x2C__office_x2C__job_x2C__corporation"/><g id="_x31_2_business_x2C__card_x2C__hand_x2C__business_x2C__office_x2C__job_x2C__corporation"><g><g><path d="m63 38.5c-.553 0-1-.447-1-1v-25h-34v24c0 .553-.447 1-1 1s-1-.447-1-1v-25c0-.553.447-1 1-1h36c.553 0 1 .447 1 1v26c0 .553-.447 1-1 1z"/></g><g><path d="m27 24.5h-9c-.553 0-1-.447-1-1s.447-1 1-1h9c.553 0 1 .447 1 1s-.447 1-1 1z"/></g><g><path d="m9 32.5c-.275 0-.55-.113-.747-.336-.367-.412-.33-1.045.083-1.411l9-8c.411-.369 1.044-.332 1.411.083.367.412.33 1.045-.083 1.411l-9 8c-.19.17-.428.253-.664.253z"/></g><g><path d="m26 49.5h-17c-.553 0-1-.447-1-1s.447-1 1-1h17c.553 0 1 .447 1 1s-.447 1-1 1z"/></g><g><path d="m27 37.5c-.282 0-.563-.119-.761-.352-.358-.42-.309-1.051.112-1.409l7.263-6.191c.418-.359 1.052-.31 1.409.112.358.42.309 1.051-.112 1.409l-7.263 6.191c-.187.162-.419.24-.648.24z"/></g><g><path d="m25.999 49.5c-.255 0-.511-.097-.706-.292-.391-.39-.393-1.022-.002-1.414l13.001-13.051c.39-.391 1.022-.394 1.414-.002.391.39.393 1.022.002 1.414l-13.001 13.051c-.195.196-.451.294-.708.294z"/></g><g><path d="m63 38.5h-26.043c-.553 0-1-.447-1-1s.447-1 1-1h26.043c.553 0 1 .447 1 1s-.447 1-1 1z"/></g><g><path d="m9 50.5c-.553 0-1-.447-1-1v-20c0-.553.447-1 1-1s1 .447 1 1v20c0 .553-.447 1-1 1z"/></g><g><path d="m9 30.5h-3c-.553 0-1-.447-1-1s.447-1 1-1h3c.553 0 1 .447 1 1s-.447 1-1 1z"/></g><g><path d="m9 50.5h-3c-.553 0-1-.447-1-1s.447-1 1-1h3c.553 0 1 .447 1 1s-.447 1-1 1z"/></g><g><path d="m6 53.5h-5c-.553 0-1-.447-1-1s.447-1 1-1h4v-24h-4c-.553 0-1-.447-1-1s.447-1 1-1h5c.553 0 1 .447 1 1v26c0 .553-.447 1-1 1z"/></g><g><path d="m39 36.449c-.253 0-.506-.096-.7-.286-.395-.387-.4-1.021-.014-1.414.46-.469.714-1.09.714-1.749 0-1.379-1.121-2.5-2.5-2.5-.593 0-1.145.199-1.597.576-.427.355-1.056.297-1.408-.127-.354-.424-.297-1.055.127-1.408.805-.672 1.826-1.041 2.878-1.041 2.481 0 4.5 2.019 4.5 4.5 0 1.186-.457 2.305-1.286 3.149-.196.201-.455.3-.714.3z"/></g><g><path d="m42.444 43.266c-.248 0-.497-.092-.691-.277-.398-.381-.413-1.015-.031-1.414l4.555-4.766c.382-.397 1.014-.413 1.414-.031.398.381.413 1.015.031 1.414l-4.555 4.766c-.196.204-.459.308-.723.308z"/></g><g><path d="m40.019 44.5c-.553 0-1-.447-1-1s.447-1 1-1c.603 0 .9-.124 1.719-.941.391-.391 1.023-.391 1.414 0s.391 1.023 0 1.414c-.991.99-1.784 1.527-3.133 1.527z"/></g><g><path d="m37.426 43.266c-.248 0-.497-.092-.691-.277-.398-.381-.413-1.015-.031-1.414l4.555-4.766c.382-.397 1.014-.413 1.414-.031.398.381.413 1.015.031 1.414l-4.555 4.766c-.197.204-.46.308-.723.308z"/></g><g><path d="m35 44.5c-.553 0-1-.447-1-1s.447-1 1-1c.603 0 .9-.124 1.719-.941.391-.391 1.023-.391 1.414 0s.391 1.023 0 1.414c-.99.99-1.783 1.527-3.133 1.527z"/></g><g><path d="m40.019 44.5h-9.039c-.553 0-1-.447-1-1s.447-1 1-1h9.039c.553 0 1 .447 1 1s-.448 1-1 1z"/></g><g><path d="m37.5 25.5c-2.481 0-4.5-2.019-4.5-4.5s2.019-4.5 4.5-4.5 4.5 2.019 4.5 4.5-2.019 4.5-4.5 4.5zm0-7c-1.379 0-2.5 1.121-2.5 2.5s1.121 2.5 2.5 2.5 2.5-1.121 2.5-2.5-1.121-2.5-2.5-2.5z"/></g><g><path d="m56 19.5h-10c-.553 0-1-.447-1-1s.447-1 1-1h10c.553 0 1 .447 1 1s-.447 1-1 1z"/></g><g><path d="m56 28.5h-7c-.553 0-1-.447-1-1s.447-1 1-1h7c.553 0 1 .447 1 1s-.447 1-1 1z"/></g><g><path d="m51 22.5h-5c-.553 0-1-.447-1-1s.447-1 1-1h5c.553 0 1 .447 1 1s-.447 1-1 1z"/></g><g><path d="m46.03 28.5c-.553 0-1.005-.447-1.005-1s.442-1 .994-1h.011c.552 0 1 .447 1 1s-.448 1-1 1z"/></g><g><path d="m56 32.5h-7c-.553 0-1-.447-1-1s.447-1 1-1h7c.553 0 1 .447 1 1s-.447 1-1 1z"/></g><g><path d="m46.03 32.5c-.553 0-1.005-.447-1.005-1s.442-1 .994-1h.011c.552 0 1 .447 1 1s-.448 1-1 1z"/></g></g></g><g id="_x31_1_badge_x2C__work_x2C__business_x2C__office_x2C__job_x2C__corporation"/><g id="_x31_0_business_x2C__card_x2C__contact_x2C__details_x2C__business_x2C__office_x2C__corporation"/><g id="_x39__satisfied_x2C__customer_x2C__like_x2C__client_x2C__business_x2C__office_x2C__corporation"/><g id="_x38__notebook_x2C__contact_x2C__details_x2C__business_x2C__office_x2C__corporation_x2C__job"/><g id="_x37__business_x2C__trip_x2C__airplane_x2C__plane_x2C__case_x2C__portfolio_x2C__job"/><g id="_x36__shredder_x2C__document_x2C__paper_x2C__business_x2C__office_x2C__corporation_x2C__job"/><g id="_x35__project_x2C__manager_x2C__team_x2C__people_x2C__business_x2C__office_x2C__corporation"/><g id="_x34__document_x2C__error_x2C__mistake_x2C__business_x2C__office_x2C__corporation_x2C__job"/><g id="_x33__focus_x2C__group_x2C__people_x2C__business_x2C__office_x2C__corporation_x2C__job"/><g id="_x32__document_x2C__sharing_x2C__folder_x2C__documentation_x2C__business_x2C__office_x2C__job"/><g id="_x31__brilliant_x2C__diamond_x2C__case_x2C__portfolio_x2C__business_x2C__office_x2C__job"/></svg>