<?xml version="1.0"?>
<svg xmlns="http://www.w3.org/2000/svg" viewBox="0 0 512 512" width="512" height="512"><g id="Outline"><rect x="248" y="306.523" width="16" height="98.955" transform="translate(-151.46 518.014) rotate(-75.964)"/><rect x="248" y="274.523" width="16" height="98.955" transform="translate(-120.415 493.775) rotate(-75.964)"/><rect x="284" y="288.631" width="16" height="24.739" transform="translate(-70.833 511.278) rotate(-75.964)"/><rect x="228" y="258.138" width="16" height="57.723" transform="translate(-99.669 446.346) rotate(-75.964)"/><rect x="248" y="210.523" width="16" height="98.955" transform="translate(-58.326 445.297) rotate(-75.964)"/><path d="M272,120a24,24,0,1,0-24-24A24.027,24.027,0,0,0,272,120Zm0-32a8,8,0,1,1-8,8A8.009,8.009,0,0,1,272,88Z"/><rect x="350.053" y="252" width="75.895" height="16" transform="translate(-62.308 136.039) rotate(-18.435)"/><rect x="86.053" y="252" width="75.895" height="16" transform="translate(-75.856 52.555) rotate(-18.435)"/><path d="M478.845,257.87l-10.28,12.26A31.921,31.921,0,0,1,480,294.647V480H416V464a8,8,0,0,0-1.343-4.436l-.622-.934a61.166,61.166,0,0,1,7.622-76.973A8,8,0,0,0,422.4,371.2l-36-48a12,12,0,0,1,19.2-14.4l36,48A8,8,0,0,0,456,352V24a8,8,0,0,0-10.53-7.589L327.788,55.638,186.142,16.292a8,8,0,0,0-4.67.125l0-.006-120,40A8,8,0,0,0,56,64V352a8,8,0,0,0,14.4,4.8l36-48a12,12,0,1,1,19.2,14.4l-36,48a8,8,0,0,0,.743,10.457,61.167,61.167,0,0,1,7.621,76.975l-.621.932A8,8,0,0,0,96,464v16H32V294.647A31.921,31.921,0,0,1,43.435,270.13l-10.28-12.26A47.881,47.881,0,0,0,16,294.647V488a8,8,0,0,0,8,8h80a8,8,0,0,0,8-8V466.4a77.245,77.245,0,0,0-5.63-90.9l5.194-6.925,50.966-16.992-5.06-15.178-29.039,9.681L138.4,332.8a27.926,27.926,0,0,0,3.58-6.363l20.549-6.847-5.058-15.18-14.33,4.775a27.889,27.889,0,0,0-7.118-12.76l26.507-8.836-5.06-15.178-72,24,3.145,9.435L72,328V246.559l7.238-1.448a84.35,84.35,0,0,0,48.1-28.618A67.868,67.868,0,0,1,176,192.1V378.234l-42.53,14.181,5.06,15.179,45.683-15.232,141.645,39.346a7.956,7.956,0,0,0,4.739-.146l0,0,43.667-15-5.2-15.132L336,412.793V246.559l7.238-1.448a84.35,84.35,0,0,0,48.1-28.618A67.868,67.868,0,0,1,440,192.1V328l-21.6-28.8a28.008,28.008,0,0,0-6.965-6.579l15.095-5.032-5.06-15.178-72,24,5.06,15.178,15.129-5.042a28.18,28.18,0,0,0-1,15.468l-19.192,6.4,5.058,15.18,21.732-7.241,9.078,12.1L349.47,360.411l5.06,15.178,40.928-13.645,10.172,13.562A77.246,77.246,0,0,0,400,466.4V488a8,8,0,0,0,8,8h80a8,8,0,0,0,8-8V294.647A47.881,47.881,0,0,0,478.845,257.87ZM440,108.686,429.657,98.343a8,8,0,0,0-12.812,2.079l-20.423,40.845-24.844-12.422a8,8,0,0,0-9.724,2.033L336,161.9V69.766L440,35.1ZM192,132.944l37.464-18.732L244.2,134.848l-25,18.752,9.6,12.8,24.7-18.529L265.49,164.65a8,8,0,0,0,12.167,1.007l17.1-17.1L320,186.422v34.264l-1.461-1.461a70.5,70.5,0,0,0-66.617-18.452,54.452,54.452,0,0,1-46.961-10.249L192,180.155ZM320,70.081v87.5l-17.344-26.016a8,8,0,0,0-12.313-1.219l-17.322,17.323L238.51,99.35a8,8,0,0,0-10.088-2.5L192,115.056V34.525ZM176,35.1V112L156.8,97.6a8,8,0,0,0-11.2,1.6l-19.2,25.6-25.6-19.2a8,8,0,0,0-11.456,1.962L72,133.578V69.766ZM115.045,206.25A68.291,68.291,0,0,1,76.1,229.421l-4.1.82V162.422l25.966-38.948L123.2,142.4a8,8,0,0,0,11.2-1.6l19.2-25.6L176,132v44.085A83.824,83.824,0,0,0,115.045,206.25ZM192,377.919V200.645l2.966,2.373A70.561,70.561,0,0,0,255.8,216.3a54.418,54.418,0,0,1,51.422,14.243L320,243.314V413.475ZM390.346,195.032l-16.689-16.689a8,8,0,0,0-12.313,1.219l-16,24,13.312,8.876,10.587-15.881,9.751,9.751A68.288,68.288,0,0,1,340.1,229.421l-4.1.82V186.9l34.09-40.907,26.332,13.166a8,8,0,0,0,10.733-3.577l19.036-38.073L440,131.314v44.771A83.777,83.777,0,0,0,390.346,195.032Z"/><path d="M97.344,147.562l-16,24,13.312,8.876,11.563-17.344,17.343,11.562,8.876-13.312-24-16A8,8,0,0,0,97.344,147.562Z"/><path d="M64.793,32l.776-.155-3.138-15.69-.777.156A56.945,56.945,0,0,0,16,72H32A40.9,40.9,0,0,1,64.793,32Z"/></g></svg>
