<?xml version="1.0" encoding="iso-8859-1"?>
<!-- Generator: Adobe Illustrator 19.0.0, SVG Export Plug-In . SVG Version: 6.00 Build 0)  -->
<svg version="1.1" id="Capa_1" xmlns="http://www.w3.org/2000/svg" xmlns:xlink="http://www.w3.org/1999/xlink" x="0px" y="0px"
	 viewBox="0 0 512 512" style="enable-background:new 0 0 512 512;" xml:space="preserve">
<g>
	<g>
		<path d="M391,77h-75V61.998c4.142,0,7.499-3.358,7.499-7.5V7.5c0-0.06-0.008-0.117-0.009-0.176
			c-0.004-0.171-0.01-0.342-0.026-0.514c-0.008-0.087-0.021-0.173-0.032-0.259c-0.02-0.156-0.042-0.313-0.071-0.468
			c-0.019-0.099-0.043-0.195-0.065-0.292c-0.032-0.139-0.066-0.277-0.107-0.415c-0.032-0.109-0.07-0.216-0.107-0.324
			c-0.042-0.121-0.084-0.242-0.132-0.362c-0.048-0.12-0.103-0.236-0.157-0.352c-0.049-0.104-0.097-0.209-0.151-0.313
			c-0.065-0.124-0.136-0.243-0.208-0.362c-0.042-0.071-0.078-0.144-0.123-0.214c-0.016-0.024-0.034-0.045-0.05-0.07
			c-0.072-0.108-0.15-0.212-0.227-0.317c-0.073-0.1-0.144-0.201-0.221-0.296c-0.061-0.074-0.126-0.144-0.19-0.215
			c-0.102-0.116-0.202-0.233-0.31-0.341c-0.039-0.039-0.081-0.074-0.121-0.112c-0.137-0.132-0.274-0.262-0.419-0.381
			c-0.023-0.019-0.048-0.035-0.071-0.054c-0.164-0.132-0.331-0.26-0.504-0.377c-0.043-0.029-0.09-0.054-0.134-0.083
			c-0.155-0.1-0.311-0.2-0.473-0.288c-0.111-0.061-0.228-0.112-0.343-0.167c-0.099-0.047-0.196-0.1-0.297-0.143
			c-0.15-0.064-0.306-0.118-0.462-0.173c-0.072-0.025-0.141-0.055-0.214-0.078c-0.147-0.047-0.297-0.083-0.448-0.12
			c-0.087-0.022-0.173-0.048-0.26-0.067c-0.124-0.026-0.251-0.043-0.377-0.064c-0.121-0.02-0.241-0.042-0.363-0.055
			c-0.1-0.011-0.202-0.015-0.303-0.022c-0.152-0.011-0.303-0.021-0.456-0.023c-0.024,0-0.047-0.003-0.071-0.003H121
			c-12.407,0-22.5,10.094-22.5,22.5v390c0,12.406,10.093,22.5,22.5,22.5h67.5v69.5c0,4.143,3.358,7.5,7.5,7.5h195
			c12.406,0,22.5-10.094,22.5-22.5v-390C413.5,87.094,403.406,77,391,77z M315.999,61.998V77h-94.423l86.923-55.775v33.273
			C308.499,58.641,311.856,61.998,315.999,61.998z M191.95,78.188c-0.021,0.013-0.039,0.029-0.059,0.042
			c-0.125,0.082-0.245,0.171-0.364,0.26c-0.084,0.062-0.17,0.122-0.25,0.187c-0.093,0.075-0.179,0.157-0.268,0.236
			c-0.098,0.087-0.198,0.173-0.291,0.264c-0.059,0.059-0.112,0.122-0.169,0.182c-0.111,0.118-0.224,0.235-0.326,0.359
			c-0.04,0.048-0.075,0.101-0.114,0.15c-0.109,0.14-0.219,0.279-0.318,0.425c-0.051,0.075-0.095,0.156-0.144,0.233
			c-0.078,0.125-0.158,0.247-0.228,0.375c-0.074,0.134-0.137,0.274-0.202,0.414c-0.036,0.076-0.077,0.15-0.11,0.228
			c-0.07,0.163-0.129,0.333-0.188,0.501c-0.02,0.059-0.045,0.115-0.064,0.174c-0.049,0.152-0.086,0.31-0.125,0.466
			c-0.02,0.082-0.045,0.161-0.062,0.243c-0.027,0.126-0.044,0.255-0.065,0.383c-0.019,0.119-0.041,0.237-0.055,0.357
			c-0.011,0.1-0.015,0.203-0.022,0.304c-0.011,0.152-0.021,0.304-0.023,0.456c0,0.023-0.004,0.046-0.004,0.07V420H121
			c-4.135,0-7.5-3.364-7.5-7.5v-390c0-4.136,3.365-7.5,7.5-7.5h169.423L191.95,78.188z M398.5,489.5c0,4.136-3.364,7.5-7.5,7.5
			H203.5V92H391c4.136,0,7.5,3.364,7.5,7.5V489.5z"/>
	</g>
</g>
<g>
	<g>
		<path d="M361,408.5H241c-4.142,0-7.5,3.357-7.5,7.5s3.358,7.5,7.5,7.5h120c4.143,0,7.5-3.357,7.5-7.5S365.143,408.5,361,408.5z"/>
	</g>
</g>
<g>
	<g>
		<path d="M341,438.501h-80c-4.142,0-7.5,3.357-7.5,7.5s3.358,7.5,7.5,7.5h80c4.143,0,7.5-3.357,7.5-7.5
			S345.143,438.501,341,438.501z"/>
	</g>
</g>
<g>
	<g>
		<path d="M301,160.745c-15.605,0-30.817,4.398-43.992,12.721c-3.502,2.212-4.548,6.844-2.336,10.346
			c2.212,3.502,6.845,4.548,10.346,2.336c10.774-6.806,23.217-10.402,35.982-10.402c37.22,0,67.5,30.28,67.5,67.5
			c0,12.378-3.378,24.479-9.768,34.995l-57.737,95.008l-57.728-95.008c-6.39-10.517-9.768-22.618-9.768-34.995
			c0-13.804,4.151-27.086,12.005-38.409c2.361-3.403,1.516-8.076-1.888-10.438c-3.403-2.36-8.077-1.514-10.437,1.889
			c-9.604,13.846-14.68,30.084-14.68,46.958c0,15.125,4.132,29.92,11.948,42.784l57.729,95.009c2.746,4.518,7.54,7.215,12.823,7.215
			c5.283,0,10.077-2.697,12.823-7.216l57.728-95.008c7.817-12.864,11.949-27.659,11.949-42.784
			C383.5,197.755,346.49,160.745,301,160.745z"/>
	</g>
</g>
<g>
	<g>
		<path d="M301,190.745c-28.948,0-52.5,23.552-52.5,52.5c0,9.631,2.624,19.038,7.586,27.206
			c9.625,15.838,26.415,25.294,44.914,25.294c18.499,0,35.289-9.456,44.913-25.294c4.964-8.168,7.587-17.575,7.587-27.206
			C353.5,214.297,329.948,190.745,301,190.745z M333.095,262.662c-6.881,11.323-18.879,18.083-32.095,18.083
			s-25.214-6.76-32.095-18.083c-3.536-5.82-5.405-12.534-5.405-19.417c0-20.678,16.822-37.5,37.5-37.5
			c20.678,0,37.5,16.822,37.5,37.5C338.5,250.128,336.631,256.842,333.095,262.662z"/>
	</g>
</g>
<g>
</g>
<g>
</g>
<g>
</g>
<g>
</g>
<g>
</g>
<g>
</g>
<g>
</g>
<g>
</g>
<g>
</g>
<g>
</g>
<g>
</g>
<g>
</g>
<g>
</g>
<g>
</g>
<g>
</g>
</svg>
