<svg xmlns="http://www.w3.org/2000/svg" xmlns:xlink="http://www.w3.org/1999/xlink" viewBox="0 0 560 560"><defs><style>.cls-1,.cls-22{fill:none;}.cls-2{fill:#768089;}.cls-3{fill:#aecc72;}.cls-4{fill:#72776d;}.cls-5{fill:#01414d;}.cls-6{fill:#75a341;}.cls-7{fill:#c1633a;}.cls-8{fill:#dc8456;}.cls-9{fill:#c7d3dd;}.cls-10{fill:#2c6d24;}.cls-11{fill:#5d9341;}.cls-12{fill:#fff;}.cls-13{fill:#a0969e;}.cls-14{fill:#edc6a4;}.cls-15{fill:#dba983;}.cls-16{fill:#022a44;}.cls-17{fill:#e8e9eb;}.cls-18{fill:#106887;}.cls-19{fill:#0b576b;}.cls-20{fill:#3a7534;}.cls-21{fill:#9fbe37;}.cls-22,.cls-25{stroke:#000;}.cls-22{stroke-linecap:round;stroke-linejoin:round;stroke-width:2px;}.cls-23{clip-path:url(#clip-path);}.cls-24{fill-rule:evenodd;}.cls-25{stroke-miterlimit:10;stroke-width:0.25px;}</style><clipPath id="clip-path"><rect class="cls-1" x="329.6" y="67.49" width="56.61" height="56.61" transform="translate(138.34 394.23) rotate(-68.64)"/></clipPath></defs><g id="Calque_2" data-name="Calque 2"><g id="Objects"><circle class="cls-2" cx="280" cy="280" r="280"/><path class="cls-3" d="M424.09,393.94c4.23-28.29,17.26-54.75,27-81.83,10.67-29.76,17.17-63.71,3.66-92.3-8.12-17.18-22.57-30.4-36.65-43.16-22.78-20.62-46.78-41.92-76.5-49.73-51.25-13.48-104.63,17.39-139.62,57.2a285.06,285.06,0,0,0-70,173.91c-.53,11.76.52,24.76,4.43,35.91Z"/><path class="cls-4" d="M397.7,388.89H162.3a159.39,159.39,0,0,0-42.53,5.57c-14.64,4.05-23,8.71-23,13.67,0,15.55,82,28.16,183.21,28.16s183.21-12.61,183.21-28.16c0-5-8.34-9.62-23-13.67A159.39,159.39,0,0,0,397.7,388.89Z"/><rect class="cls-5" x="180.77" y="311.65" width="2.65" height="94.69"/><path class="cls-6" d="M187,407.74a18.84,18.84,0,0,1-10.05,0l3.05-9.57h4Z"/><rect class="cls-5" x="343.7" y="312.26" width="2.65" height="94.69"/><path class="cls-6" d="M350.06,407.74a18.88,18.88,0,0,1-10.06,0l3.05-9.57h4Z"/><rect class="cls-5" x="374.27" y="296.68" width="2.65" height="94.69"/><path class="cls-6" d="M379.42,394.09a15.25,15.25,0,0,1-8.1,0l2.46-7.72H377Z"/><polygon class="cls-6" points="408.22 286.05 208 286.05 133.64 309.68 133.64 314.59 371.62 314.59 408.22 290.96 408.22 286.05"/><polygon class="cls-5" points="408.22 286.05 208 286.05 133.64 309.68 371.62 309.68 408.22 286.05"/><rect class="cls-5" x="284.96" y="277.43" width="2.88" height="7.57"/><rect class="cls-5" x="211.13" y="296.68" width="2.65" height="94.69"/><path class="cls-6" d="M216.29,394.09a15.29,15.29,0,0,1-8.11,0l2.46-7.72h3.19Z"/><polygon class="cls-7" points="312.75 274.49 309.82 278.46 263.95 274.49 244.56 213.53 247.29 209.53 296.08 209.53 312.75 274.49"/><polygon class="cls-8" points="309.81 278.46 261.01 278.46 244.35 213.5 293.14 213.5 309.81 278.46"/><polygon class="cls-9" points="303.49 274.1 264.12 274.1 250.35 219.38 289.72 219.38 303.49 274.1"/><polygon class="cls-5" points="267.2 271.01 254.21 219.38 250.35 219.38 264.12 274.1 303.49 274.1 302.71 271.01 267.2 271.01"/><polygon class="cls-7" points="410.92 226.14 407.99 222.17 362.13 226.14 342.74 287.09 345.46 291.1 394.26 291.1 410.92 226.14"/><polygon class="cls-8" points="407.98 222.17 359.19 222.17 342.52 287.13 391.32 287.13 407.98 222.17"/><polygon class="cls-9" points="401.66 226.53 362.29 226.53 348.52 281.25 387.89 281.25 401.66 226.53"/><polygon class="cls-5" points="365.38 229.62 352.38 281.25 348.52 281.25 362.29 226.53 401.66 226.53 400.89 229.62 365.38 229.62"/><polygon class="cls-7" points="397.4 226.14 394.47 222.17 348.61 226.14 329.22 287.09 331.94 291.1 380.74 291.1 397.4 226.14"/><polygon class="cls-8" points="394.46 222.17 345.67 222.17 329 287.13 377.8 287.13 394.46 222.17"/><polygon class="cls-9" points="388.14 226.53 348.77 226.53 335 281.25 374.37 281.25 388.14 226.53"/><polygon class="cls-5" points="351.86 229.62 338.86 281.25 335 281.25 348.77 226.53 388.14 226.53 387.37 229.62 351.86 229.62"/><polygon class="cls-10" points="316.76 285.04 257.24 284.92 222.7 303 284.62 303 316.76 285.04"/><path class="cls-5" d="M278.12,291.22c4.65-.4,7.91-1.32,7.91-2.39,0-1.44-5.9-2.6-13.17-2.6s-13.17,1.16-13.17,2.6c0,.9,2.27,1.69,5.73,2.16-6.84.28-12.34,1.2-14.43,2.4-.34,0-.69,0-1.05,0-4.32,0-7.82.8-7.82,1.79s3.5,1.78,7.82,1.78a30,30,0,0,0,4.27-.29A75,75,0,0,0,269.84,298c10.91,0,19.76-1.6,19.76-3.57C289.6,293,284.89,291.79,278.12,291.22Z"/><rect class="cls-11" x="318.19" y="247.59" width="4.26" height="40.27"/><rect class="cls-5" x="320.84" y="245.98" width="13.67" height="43.65"/><path class="cls-12" d="M323.1,248.44a.77.77,0,0,1-.76.77.77.77,0,1,1,0-1.54A.77.77,0,0,1,323.1,248.44Z"/><path class="cls-12" d="M323.1,268.15a.77.77,0,0,1-.76.77.77.77,0,0,1,0-1.54A.77.77,0,0,1,323.1,268.15Z"/><path class="cls-12" d="M323.1,286a.76.76,0,0,1-.76.76.77.77,0,0,1-.77-.76.78.78,0,0,1,.77-.77A.77.77,0,0,1,323.1,286Z"/><path class="cls-13" d="M340,295.06a24.88,24.88,0,0,1-14.7,0V278.38a34,34,0,0,1,14.7,0Z"/><path class="cls-9" d="M332.64,277.63c-1.19,0-2.38.07-3.6.21v18a27.51,27.51,0,0,0,3.6.27Z"/><path class="cls-9" d="M328,278c-.65.09-1.3.16-2,.28v17c.65.17,1.31.31,2,.43Z"/><ellipse class="cls-5" cx="332.94" cy="278.71" rx="6.06" ry="0.62"/><path class="cls-11" d="M337.82,279.08a45.93,45.93,0,0,0-9.76,0,45.93,45.93,0,0,0,9.76,0Z"/><path class="cls-13" d="M328.27,300.13a24.88,24.88,0,0,1-14.7,0V283.45a34,34,0,0,1,14.7,0Z"/><path class="cls-9" d="M320.92,282.71c-1.17,0-2.34.07-3.54.2v18a26.62,26.62,0,0,0,3.54.27Z"/><path class="cls-9" d="M315.68,283.14c-.39.06-.78.09-1.18.16v17.06c.4.1.79.17,1.18.26Z"/><path class="cls-5" d="M327.32,283.78c0,.35-2.72.63-6.07.63s-6.06-.28-6.06-.63,2.72-.62,6.06-.62S327.32,283.44,327.32,283.78Z"/><path class="cls-11" d="M326.13,284.15a45.93,45.93,0,0,0-9.76,0,45.93,45.93,0,0,0,9.76,0Z"/><path class="cls-14" d="M240.15,165.74a11.55,11.55,0,0,1-2.21,8.79,15.43,15.43,0,0,1-11.38,11.85,14.75,14.75,0,0,1-8.44-14A14.51,14.51,0,0,1,228,159.42c3-.9,6.57-.53,8.74,1.82Z"/><path class="cls-15" d="M231.49,159a10.44,10.44,0,0,0-3.48.44,14.51,14.51,0,0,0-9.89,12.94,14.75,14.75,0,0,0,8.44,14,14,14,0,0,0,1.56-.46C226.22,176.62,226,166.49,231.49,159Z"/><path class="cls-14" d="M206.19,190.2c-.58-.66,0-1.67.49-2.38a42.21,42.21,0,0,0,8.4-19.07,55,55,0,0,0,13.3,3.31,154,154,0,0,0-4.06,23.53l-17.18-4.91A1.91,1.91,0,0,1,206.19,190.2Z"/><path class="cls-16" d="M243.88,165.09a7.5,7.5,0,0,0,5-5.76,8,8,0,0,1-5.64.76,1.84,1.84,0,0,0,1.44-.63,11.68,11.68,0,0,1-6.1-2.63c-1.8-1.34-3.43-2.91-5.33-4.12a9.38,9.38,0,0,0-6.37-1.68,7,7,0,0,0-.79.2,10.61,10.61,0,0,0-3.85.22c-4.3,1.12-7.34,5.21-8.3,9.53s-1.45,9.41-.29,13.69c4.37,2.07,10.77,1.91,15.4.54a17.93,17.93,0,0,0,1.9-.69,17.73,17.73,0,0,0,.52-2.63,5.29,5.29,0,0,1,1.17-2.85,2,2,0,0,1,3.69,1.28,4,4,0,0,1-.06.92,19.59,19.59,0,0,0,2.52-2.55,8.93,8.93,0,0,0,8.08-3.93A8.62,8.62,0,0,1,243.88,165.09Z"/><path class="cls-15" d="M234.41,172a3.54,3.54,0,0,1,.62-.53,1.49,1.49,0,0,0,.43-1.61,1.17,1.17,0,0,0-1.45-.68,1.51,1.51,0,0,0-.82,1.4,5.08,5.08,0,0,0,.38,1.79.72.72,0,0,0-.85,0,.73.73,0,0,0-.22.82,2.38,2.38,0,0,0,.39.51.62.62,0,0,1,.15.59c0,.12-.15.21-.21.33s-.05.3.08.33a.3.3,0,0,0,.23-.08,2.62,2.62,0,0,0,1-1.73A2.63,2.63,0,0,1,234.41,172Z"/><path class="cls-9" d="M232.28,157.23c.52.3.45,1.1.84,1.56s1.29.4,2,.41a5.2,5.2,0,0,1,3.42,1.56,15,15,0,0,1,2.29,3.08l1.35-2.13-13.76-8c.23,1.13.46,2.26.68,3.39a1.34,1.34,0,0,0,.23.58c.35.4,1,.18,1.47-.1S231.81,157,232.28,157.23Z"/><path class="cls-15" d="M247.72,271.09a18.81,18.81,0,0,0-2.18-5.77,7.26,7.26,0,0,0-1.19-1.84,8.33,8.33,0,0,0-3.67-1.7,5.13,5.13,0,0,1-3.3-2.19,11.34,11.34,0,0,1-4.69,2.34,9.06,9.06,0,0,0,2.82,8h.05c.31,1.74.37,3.38-.39,4.6a3.09,3.09,0,0,0,0,1.9c.1.52.67.85,1.12,1.13.55-1.69,1.52-3.81,1.4-5.81,0-.43-.06-.93-.1-1.46a8.1,8.1,0,0,1,1.12,2.72,3.29,3.29,0,0,1,.11,1.67c-.19.52-.44,1.15-.61,1.69a2.23,2.23,0,0,0,.65,2.48c.6-1.43,1.74-2.2,2-3.51a14.63,14.63,0,0,0-.07-1.74,13.23,13.23,0,0,0,.16-1.77,6.51,6.51,0,0,0-.64-2c.34.51.72,1,1.07,1.48a7.9,7.9,0,0,1,1.43,4.6,7.22,7.22,0,0,0,.06,1.86,1.53,1.53,0,0,0,1.23,1.24,27.32,27.32,0,0,0,.86-4.59l-.59-3.42s-.16-.89-.43-1.92a8.22,8.22,0,0,1,1.81,5.1,5.78,5.78,0,0,0,.11,1.86,1.38,1.38,0,0,0,1.37,1.05A18.79,18.79,0,0,0,247.72,271.09Z"/><path class="cls-14" d="M246.23,262.46a7.92,7.92,0,0,0-2-.92,32.66,32.66,0,0,0-3.74-1c-10-9.27-18.9-24.42-22-37.35-2.27-9.42-2.47-19.2-2.67-28.88l-7.48-5.5c-3.65-1.54-8.05.53-10.29,3.79S195.23,200,195.1,204c-.34,11,2.49,18.45,6.59,28.65A58.64,58.64,0,0,0,209,245.28c6.76,8.64,13.58,17.07,23.82,21,1.67.89,4.12,1.9,6.23.24a6.17,6.17,0,0,0,4.72,1.49,8,8,0,0,1,2.12-.18,8.92,8.92,0,0,1,2.74,1.48c.91.52,2.29.62,2.8-.3C249.12,267.46,248.56,264.05,246.23,262.46Z"/><path class="cls-5" d="M224.88,239.67a72,72,0,0,1-6.43-16.46c-2.27-9.42-2.47-19.2-2.67-28.88l-7.48-5.5c-3.65-1.54-8.05.53-10.29,3.79S195.23,200,195.1,204c-.34,11,2.49,18.45,6.59,28.65A58.64,58.64,0,0,0,209,245.28c4.32,5.53,8.68,11,13.93,15.19C225.42,255.05,222.2,246.29,224.88,239.67Z"/><path class="cls-16" d="M181.71,412.56a11.67,11.67,0,0,0-4.31-1,8.5,8.5,0,0,1-3.55-1.19,3.17,3.17,0,0,1-1.71-3.26,21.16,21.16,0,0,1-8.91-3c0,2.45-1.59,4.65-2.26,7a5.8,5.8,0,0,0-.11,1.93,9.32,9.32,0,0,0,.31,4.8,15,15,0,0,0,9.31,1.84,9.09,9.09,0,0,1,.37-1.54,10.66,10.66,0,0,1,4.54-.38,12.67,12.67,0,0,0,3.38.48,7.09,7.09,0,0,0,2.29-.93A4,4,0,0,0,183.2,415C183.51,413.74,182.85,413.22,181.71,412.56Z"/><path class="cls-17" d="M171.51,409.29a37.11,37.11,0,0,0-7.7-3A6.54,6.54,0,0,0,163,408a2.16,2.16,0,0,0,.24,1.81,2.61,2.61,0,0,0,1.55.9A7.85,7.85,0,0,0,171.51,409.29Z"/><path class="cls-18" d="M172.84,262.08c-9.1,25.28-2.38,38.09-1.32,57.9,1.14,21.15,3.42,39.41-4.3,59.12-1.24,3.15-2.92,14.44-4.56,18.5-1.28,3.13-2.54,4.79-.64,7.6s7.88,5.85,11,4.45c8.6-22.21,18.78-43.8,26.79-66.23,7.93-22.21,14.13-50,13.77-73.64Z"/><path class="cls-19" d="M183.58,264.11c-10.23,28.12,0,62.82-2.32,91.2a201.34,201.34,0,0,1-12.89,54.19,6.65,6.65,0,0,0,4.61.15c8.6-22.21,18.78-43.8,26.79-66.23,7.23-20.25,12.54-50.54,13.15-73.76Z"/><path class="cls-16" d="M182.28,263.86c-14.78,33.86,9.87,71.75,2.42,107.13-.84,5-1.34,10.39-2.34,15.68,6-14.33,12.18-28.61,17.41-43.25,7.43-20.8,13.68-50.39,14.16-73.57Z"/><path class="cls-16" d="M219.06,414.41a4.37,4.37,0,0,0-3.47-2.29,27.34,27.34,0,0,0-4.34,0c-5.7.06-11.27-2.89-16.9-2a61.07,61.07,0,0,0-.12,7.28,12,12,0,0,0,.24,1.33,27,27,0,0,0,.47,3.68,4.32,4.32,0,0,0,.61,1.83,3.72,3.72,0,0,0,2.11,1.23,11.22,11.22,0,0,0,9.13-1.55,2.33,2.33,0,0,0,.8-.79,1.89,1.89,0,0,0,.17-.78,22.65,22.65,0,0,1,2.61-1,19.65,19.65,0,0,0,4.81-1.8C217.07,418.6,219.9,416.37,219.06,414.41Z"/><path class="cls-17" d="M208.05,413.44a.91.91,0,0,1,1.11.69,1.41,1.41,0,0,1-.5,1.31,3.41,3.41,0,0,1-1.3.66,20.79,20.79,0,0,1-6.39.73,10.81,10.81,0,0,1-3.8-.55,4.16,4.16,0,0,1-2.59-2.68,2.61,2.61,0,0,1,1.59-3.11Z"/><path class="cls-18" d="M177.72,263c-5.15,30.64,2.22,39.42,10.31,65.93,2.63,8.59,6.83,30.32,5.66,39.12s0,24.39.27,44.41c4.91,3.54,8.68,3.19,14.06,1.87,3.28-23.68,7.21-47.95,7.94-70.48.68-21.06-.9-49.45-1.33-73.87Z"/><path class="cls-19" d="M194.35,266.15,177.72,263c-5.15,30.64,2.22,39.42,10.31,65.93,2.63,8.59,6.83,30.32,5.66,39.12s0,24.39.27,44.41a13.58,13.58,0,0,0,6.45,2.71c2-24.84,3.56-49.65,1.62-74.81C200,317.87,190.46,289.71,194.35,266.15Z"/><path class="cls-6" d="M199.76,187.37a15.27,15.27,0,0,0,5.92-6.8,27.82,27.82,0,0,1,22.54,14.48l-11.52-4.36c-4.84-1.83-9.82-3.69-15-3.61Z"/><path class="cls-6" d="M214.84,273.69c0-.83,0-1.64.08-2.51.31-10.29,1.87-14.42,2.11-17.6.56-7.77,3.08-10.36,6.92-17.13,2.93-5.16,7.42-13.88,10.47-19s4.64-11.77,1.59-16.85c-1.82-3-5-5-8.13-6.62a102,102,0,0,0-9.6-4.32c-6.31-2.5-16.39-6.54-23.14-1.85A37.67,37.67,0,0,0,185.81,198c-11.37,19-10.94,33.87-16.82,66.65a5.87,5.87,0,0,1-.18.67,3,3,0,0,0,2.06,3.78A148.83,148.83,0,0,0,214.84,273.69Z"/><path class="cls-16" d="M202.48,188a75.49,75.49,0,0,1,18.92,3.86,34.63,34.63,0,0,0-18.2-5.79,2.61,2.61,0,0,0-1.44.24,1,1,0,0,0-.39,1.26A1.41,1.41,0,0,0,202.48,188Z"/><path class="cls-20" d="M214.84,273.69c0-.83,0-1.64.08-2.51.31-10.29,1.87-14.42,2.11-17.6.56-7.77,3.08-10.36,6.92-17.13,2.93-5.16,7.42-13.88,10.47-19,2.84-4.72,4.4-10.82,2.17-15.73-24.2,12.86-30.53,45.79-30.18,72.08C209.22,273.86,212,273.8,214.84,273.69Z"/><path class="cls-16" d="M209.53,273.45l-.62-.06a145,145,0,0,1,15.54-51.52l.54.28A144.46,144.46,0,0,0,209.53,273.45Z"/><path class="cls-16" d="M229.63,225.6a11.05,11.05,0,0,1-4.55-18.18,13.13,13.13,0,0,0,4.55,18.18Z"/><path class="cls-14" d="M289.49,208.12a1.63,1.63,0,0,0-1.11-1.2,3.89,3.89,0,0,1-.83-.14c-.47-.21-.65-.86-1.15-1s-1.07.48-1.64.41-.84-.84-1.4-1.06c-.86-.34-1.72.78-2.63.62-.6-.11-1-.74-1.63-.77a1.67,1.67,0,0,0-1,.38,20.3,20.3,0,0,0-3.54,3,4.51,4.51,0,0,0-1.33-1,1.51,1.51,0,0,0-1.56.21,2.26,2.26,0,0,0-.28,2.07c.23,1.2.47,2.41.7,3.62a100.32,100.32,0,0,1-12.43,11.78c-1.25-1.21-2.54-2.36-3.8-3.56-1.64-1.56-3-3-4.21-4.39a41.66,41.66,0,0,1-11.19,14.52c.61.47,1.28,1,2.06,1.69a125.24,125.24,0,0,0,10.28,8.58c2,1.35,4.19,2.55,6.54,2.43a5.5,5.5,0,0,0,2.89-.31c1.94-.8,3.24-2.61,4.41-4.35a231,231,0,0,0,14.14-24.19,9.21,9.21,0,0,0,5-3.18,13.05,13.05,0,0,1,1.46-2,4,4,0,0,1,2.56-.79A3.51,3.51,0,0,0,289.49,208.12Z"/><path class="cls-15" d="M256.16,235.94c-4.33-1.45-8.15-4.4-11.83-8a40.65,40.65,0,0,1-3.85,3.69c.61.47,1.28,1,2.06,1.69a125.24,125.24,0,0,0,10.28,8.58c2,1.35,4.19,2.55,6.54,2.43a5.5,5.5,0,0,0,2.89-.31c1.94-.8,3.24-2.61,4.41-4.35A230.31,230.31,0,0,0,280,217.06C271.84,223.71,267.28,239.64,256.16,235.94Z"/><path class="cls-6" d="M251.67,217.14c-5.12-5.86-7.18-10.42-14.15-17.11a4.91,4.91,0,0,0-2.35-1.48,4.52,4.52,0,0,0-3.21,1.09,21,21,0,0,0-8.54,13.79c-.44,2.88-.21,6,1.49,8.38,1.32,1.84,3.37,3,5.33,4.14,5.36,3.16,6.55,2.86,10.24,5.71A41.66,41.66,0,0,0,251.67,217.14Z"/><path class="cls-20" d="M244.13,228.23c-6.79-4.65-13.89-7.93-20.53-15.63-.06.28-.13.55-.18.83-.44,2.88-.21,6,1.49,8.38,1.32,1.84,3.37,3,5.33,4.14,5.36,3.16,6.55,2.86,10.24,5.71A43.81,43.81,0,0,0,244.13,228.23Z"/><path class="cls-16" d="M239.17,230.49l-.43-.44a63.56,63.56,0,0,0,11.18-14.75l.54.29A64.14,64.14,0,0,1,239.17,230.49Z"/><path class="cls-21" d="M308.63,167v0h0Z"/><path class="cls-21" d="M308.45,175.36a7.52,7.52,0,0,1-1.48-.63,8.22,8.22,0,0,0,1.59,2.66C308.51,176.72,308.48,176,308.45,175.36Z"/><path class="cls-21" d="M307.73,169.93a4.4,4.4,0,0,0,.71,1c0-1.2.07-2.4.16-3.6A12.75,12.75,0,0,1,307.73,169.93Z"/><path class="cls-21" d="M308.42,172.47c0-.49,0-1,0-1.48a2,2,0,0,1-.88-.65,7.5,7.5,0,0,0-.79,3.58,8.72,8.72,0,0,0,1.68,1.38C308.42,174.36,308.42,173.42,308.42,172.47Z"/><path class="cls-21" d="M308.65,167v0h0Z"/><path class="cls-21" d="M308.82,175.36a7.57,7.57,0,0,0,1.49-.63,8.19,8.19,0,0,1-1.6,2.66C308.77,176.72,308.8,176,308.82,175.36Z"/><path class="cls-21" d="M309.55,169.93a4.88,4.88,0,0,1-.72,1c0-1.2-.07-2.4-.16-3.6A12.85,12.85,0,0,0,309.55,169.93Z"/><path class="cls-21" d="M308.85,172.47c0-.49,0-1,0-1.48a2,2,0,0,0,.89-.65,7.61,7.61,0,0,1,.78,3.58,8.72,8.72,0,0,1-1.68,1.38C308.85,174.36,308.86,173.42,308.85,172.47Z"/><path d="M309.28,177.7c0-.06-.06-.11-.16-.15s.05,0,.05.08-.23.18-.5.18-.49-.08-.49-.18,0,0,0-.08-.15.09-.15.15.08.13.21.17a.92.92,0,0,0-.19.65c.05.18.58.18.58.18s.53,0,.58-.18a.92.92,0,0,0-.18-.65C309.19,177.83,309.28,177.77,309.28,177.7Z"/><path d="M287.75,178.15a2.19,2.19,0,0,1-.6.23,2.72,2.72,0,0,1-.63.08,1.8,1.8,0,0,1-.71-.13,1.59,1.59,0,0,1-.93-.9,1.93,1.93,0,0,1,0-1.42,1.64,1.64,0,0,1,.38-.55,1.71,1.71,0,0,1,.56-.35,2,2,0,0,1,.7-.13,2.19,2.19,0,0,1,.63.1,1.41,1.41,0,0,1,.54.34l-.3.31a1,1,0,0,0-.41-.28,1.19,1.19,0,0,0-.49-.1,1.35,1.35,0,0,0-.53.1,1.22,1.22,0,0,0-.42.29,1.28,1.28,0,0,0-.28.43,1.56,1.56,0,0,0,0,1.1,1.28,1.28,0,0,0,.28.43,1.26,1.26,0,0,0,.43.29,1.47,1.47,0,0,0,.56.1,2.12,2.12,0,0,0,.42,0,1.58,1.58,0,0,0,.4-.15v-1h-.76v-.36h1.15Z"/><path d="M290.07,175.07h.85l.47,0a1.29,1.29,0,0,1,.42.12.74.74,0,0,1,.31.27,1,1,0,0,1,.11.49.8.8,0,0,1-.22.59,1,1,0,0,1-.6.28l.93,1.52h-.48l-.89-1.48h-.51V178a.38.38,0,0,1-.39.39h0Zm.39,1.46h.69a1.4,1.4,0,0,0,.32-.06.62.62,0,0,0,.25-.17.46.46,0,0,0,.09-.31.52.52,0,0,0-.07-.29.46.46,0,0,0-.18-.16.72.72,0,0,0-.26-.08l-.29,0h-.55Z"/><path d="M295.49,175.07h.37l1.41,3.3h-.46l-.34-.81h-1.65l-.34.81H294Zm.18.5h0L295,177.2h1.35Z"/><path d="M299.2,175.07h1a2.12,2.12,0,0,1,.44,0,1.11,1.11,0,0,1,.37.15.84.84,0,0,1,.25.28.83.83,0,0,1,.1.43.86.86,0,0,1-.1.45.81.81,0,0,1-.27.28,1,1,0,0,1-.35.15,1.59,1.59,0,0,1-.36,0h-.67V178a.38.38,0,0,1-.39.39h0Zm.39,1.46h.67a.77.77,0,0,0,.47-.14.45.45,0,0,0,.19-.41.44.44,0,0,0-.19-.41.77.77,0,0,0-.47-.14h-.67Z"/><path d="M303.46,175.07h.4v1.4h1.76v-1.4H306V178a.38.38,0,0,1-.39.39h0v-1.54h-1.76V178a.39.39,0,0,1-.4.39h0Z"/><path d="M313.36,175.75a1,1,0,0,0-.83-.4,1.26,1.26,0,0,0-.51.11,1.68,1.68,0,0,0-.4.3,1.39,1.39,0,0,0-.26.44,1.54,1.54,0,0,0-.09.52,1.61,1.61,0,0,0,.09.54,1.39,1.39,0,0,0,.26.44,1.18,1.18,0,0,0,.4.29,1.37,1.37,0,0,0,1.05,0,1.27,1.27,0,0,0,.42-.35l.29.25a1.34,1.34,0,0,1-.54.44,1.8,1.8,0,0,1-.71.14,1.59,1.59,0,0,1-.66-.13,1.7,1.7,0,0,1-.54-.36,1.67,1.67,0,0,1-.35-.55,1.78,1.78,0,0,1-.13-.7A1.91,1.91,0,0,1,311,176a1.57,1.57,0,0,1,.35-.55,1.64,1.64,0,0,1,.53-.37,1.69,1.69,0,0,1,.68-.14,1.64,1.64,0,0,1,.65.13,1.24,1.24,0,0,1,.52.39Z"/><path class="cls-21" d="M292.43,160.46a66.71,66.71,0,0,1,3.26-7,14.85,14.85,0,0,1,1.77-2.64.52.52,0,0,1,.38-.19.61.61,0,0,1,.41.13.64.64,0,0,1,.19.36.57.57,0,0,1-.08.38c-.26.38-.5.76-.74,1.14a.62.62,0,0,1,.22.1.57.57,0,0,1,.17.31.54.54,0,0,1-.07.33c-.68,1-1.31,2-1.91,3.06q-1.14,1.94-2.16,4a34.23,34.23,0,0,0-1.75,4.14c-.08.26-.17.62-.27,1.05a4.66,4.66,0,0,0-.13,1.26,1,1,0,0,0,.42.89l0,0a2.19,2.19,0,0,0,1.63,0,6.55,6.55,0,0,0,1.52-.77,7.44,7.44,0,0,0,1.31-1.13,5.4,5.4,0,0,0,.95-1.43,2.06,2.06,0,0,0,.16-1.1,1.37,1.37,0,0,0-.58-.92,3.48,3.48,0,0,0-1.11-.5,6.33,6.33,0,0,0-1.23-.21.49.49,0,0,1-.41-.31.53.53,0,0,1,0-.39.41.41,0,0,1-.14-.2.57.57,0,0,1,0-.54.57.57,0,0,1,.52-.27,12.89,12.89,0,0,0,5.94-1.5,18.27,18.27,0,0,0,3.65-2.53,14.57,14.57,0,0,0,1-1.38,6.83,6.83,0,0,0,.88-1.88,3.36,3.36,0,0,0,0-1.91v0a3.25,3.25,0,0,0-1.4-1.51,6.15,6.15,0,0,0-2-.7,14.07,14.07,0,0,0-5.39.3,25,25,0,0,0-5.11,1.84,22.08,22.08,0,0,0-4.21,2.69,12.11,12.11,0,0,0-3.15,3.83,9.22,9.22,0,0,0-.95,3.9,6.33,6.33,0,0,0,1.19,3.8,9.28,9.28,0,0,0,4.3,3.19,4.11,4.11,0,0,0,.15-.46Q291,164,292.43,160.46Z"/><path d="M307.69,161.29c-.53-.12-1.3.21-2.32,1a6.77,6.77,0,0,0-1.08,1.12,6.75,6.75,0,0,1,0-.76.59.59,0,0,0-.09-.31.47.47,0,0,0-.25-.21.38.38,0,0,0-.33.06,6.12,6.12,0,0,0-1.4,1.11,6.22,6.22,0,0,0,0-1.06c0-.11-.07-.16-.16-.17a.2.2,0,0,0-.2.12,3.43,3.43,0,0,0-.33.77c-.09.29-.16.54-.22.72s-.11.48-.19.86l-.16.78a.35.35,0,0,0,.32.46.44.44,0,0,0,.55-.25,6.66,6.66,0,0,1,1.53-2c0,.18,0,.45,0,.79s0,.6,0,.78a.32.32,0,0,0,.37.36.45.45,0,0,0,.48-.27,9.12,9.12,0,0,1,1.16-1.81,2.32,2.32,0,0,1,1.51-1,.64.64,0,0,1,.4.06.51.51,0,0,1,.23.29,1.85,1.85,0,0,1,.11.42,2.42,2.42,0,0,1,0,.54c0,.21,0,.41-.06.58a4.34,4.34,0,0,1-.12.61c-.07.22-.11.4-.15.53s-.08.29-.13.47a1.21,1.21,0,0,0-.07.33c-.06.19,0,.32.17.38a.31.31,0,0,0,.41-.17,9.17,9.17,0,0,0,.43-1.13,10.77,10.77,0,0,0,.38-1.58,3.28,3.28,0,0,0,0-1.54A1.1,1.1,0,0,0,307.69,161.29Z"/><path d="M306.47,145.75A9.79,9.79,0,0,0,303,145a16.31,16.31,0,0,0-3.74.28,26,26,0,0,0-3.53.9,32.8,32.8,0,0,0-4.64,2,24.22,24.22,0,0,0-4.26,2.86,16,16,0,0,0-3.29,3.78,11.46,11.46,0,0,0-.94,2,10.32,10.32,0,0,0-.67,4.33,7.76,7.76,0,0,0,1.51,4.07,10.46,10.46,0,0,0,2.32,2.28,12.67,12.67,0,0,0,2.89,1.52l.37.13a.36.36,0,0,1,.2.16.31.31,0,0,1,0,.25c-.17.51-.32,1-.46,1.56-.63-.13-1.22-.26-1.75-.4a.15.15,0,1,0-.08.29c.53.14,1.12.27,1.75.4-.07.25-.13.51-.2.77a2,2,0,0,1,0,.2,4.44,4.44,0,0,0-.13.86,1.07,1.07,0,0,0,.21.77.08.08,0,0,0,0,0,.33.33,0,0,0,.41,0,.58.58,0,0,0,.25-.36.4.4,0,0,0-.14-.4,4,4,0,0,1,0-1q0-.39.12-.78a38.92,38.92,0,0,0,10.52.49,31.79,31.79,0,0,0,7.12-1.85l.37-.62a28.74,28.74,0,0,1-7.53,2.17,38.66,38.66,0,0,1-10.43-.48c.09-.53.21-1,.35-1.57a.29.29,0,0,1,.15-.19.46.46,0,0,1,.23-.06,3.13,3.13,0,0,0,.81.07.16.16,0,0,0,.11-.24s-.07-.07-.14-.07a2.24,2.24,0,0,1-.63,0,.32.32,0,0,1-.25-.42c.08-.28.16-.55.25-.83.34-1,.7-2,1.07-3-.05.2-.11.41-.17.62a9,9,0,0,0-.21,1.36,2.49,2.49,0,0,0,.22,1.34,1.26,1.26,0,0,0,.67.55,2.45,2.45,0,0,0,.87.17,6.24,6.24,0,0,0,3.05-1,9.35,9.35,0,0,0,2.42-2.18,4.26,4.26,0,0,0,.93-2.21,2.5,2.5,0,0,0-.92-2.11h0a.33.33,0,0,1-.11-.33.3.3,0,0,1,.23-.24,16.14,16.14,0,0,0,4.51-2.06,19.1,19.1,0,0,0,3.76-3.24,14.3,14.3,0,0,0,1.94-2.79,7,7,0,0,0,.83-3.24,3.57,3.57,0,0,0-.83-2.2A5.41,5.41,0,0,0,306.47,145.75Zm1.63,5a8.48,8.48,0,0,1-1,2.18,16.06,16.06,0,0,1-1.4,1.84,18.28,18.28,0,0,1-4.91,3.76,12.89,12.89,0,0,1-5.94,1.5.57.57,0,0,0-.52.27.57.57,0,0,0,0,.54.56.56,0,0,0,.47.35,8.54,8.54,0,0,1,1.43.24,4.19,4.19,0,0,1,1.29.59,1.61,1.61,0,0,1,.67,1.06,2.29,2.29,0,0,1-.19,1.27,6.17,6.17,0,0,1-1.09,1.67,8.69,8.69,0,0,1-1.53,1.31,7.44,7.44,0,0,1-1.76.89,2.59,2.59,0,0,1-1.9,0l0,0a1.23,1.23,0,0,1-.49-1,6.19,6.19,0,0,1,.15-1.46c.12-.51.23-.92.33-1.22a38.21,38.21,0,0,1,2-4.81c.79-1.55,1.63-3.08,2.51-4.57.69-1.21,1.43-2.39,2.21-3.56a.57.57,0,0,0,.08-.38.64.64,0,0,0-.19-.36.61.61,0,0,0-.41-.13.52.52,0,0,0-.38.19,14.85,14.85,0,0,0-1.77,2.64,66.71,66.71,0,0,0-3.26,7q-1.44,3.56-2.65,7.21c0,.16-.1.32-.15.48l-.12.39a.35.35,0,0,1-.17.19.33.33,0,0,1-.26,0,10.72,10.72,0,0,1-5.35-3.84,7.37,7.37,0,0,1-1.38-4.4,10.65,10.65,0,0,1,1.11-4.53,13.8,13.8,0,0,1,3.65-4.44,26,26,0,0,1,4.88-3.12,29.9,29.9,0,0,1,5.94-2.14,16.29,16.29,0,0,1,6.24-.34,7.08,7.08,0,0,1,2.31.81,3.71,3.71,0,0,1,1.62,1.75v0A3.87,3.87,0,0,1,308.1,150.74Z"/><path d="M314.81,148.32c-.79-.83-1.67-.08-.74.83,5.5,5.36,5.49,10.53,1.21,14.95h0a21.52,21.52,0,0,1-5.37,4l.18.34a19.64,19.64,0,0,0,5.31-3.81h0a12,12,0,0,0,3.49-6.36C319.54,154.38,317.53,151,314.81,148.32Z"/><path d="M200.74,218.13a2.69,2.69,0,0,0-2,.09,5,5,0,0,0-1.12.53,4,4,0,0,1,.21-.57.57.57,0,0,0,0-.26.38.38,0,0,0-.13-.22.27.27,0,0,0-.26,0,4.88,4.88,0,0,0-1.37.44,4.51,4.51,0,0,0,.3-.8.14.14,0,0,0-.07-.17.17.17,0,0,0-.18,0,2.76,2.76,0,0,0-.47.49q-.22.29-.36.48c-.09.12-.22.32-.39.59l-.34.53a.29.29,0,0,0,.11.44.35.35,0,0,0,.48,0,5.18,5.18,0,0,1,1.72-1.08c0,.13-.11.33-.2.59s-.16.46-.2.59a.27.27,0,0,0,.17.38.36.36,0,0,0,.44-.08,7.06,7.06,0,0,1,1.38-1,1.86,1.86,0,0,1,1.41-.32.44.44,0,0,1,.28.16.43.43,0,0,1,.09.28,1.42,1.42,0,0,1,0,.34,1.33,1.33,0,0,1-.15.4,4.1,4.1,0,0,1-.21.42,2.54,2.54,0,0,1-.26.42l-.26.36-.23.31a.88.88,0,0,0-.15.22.21.21,0,0,0,0,.33.23.23,0,0,0,.35,0,7.4,7.4,0,0,0,.65-.72,9.48,9.48,0,0,0,.73-1.07,2.72,2.72,0,0,0,.4-1.17A.87.87,0,0,0,200.74,218.13Z"/><path d="M204.23,206.2a7.7,7.7,0,0,0-2.4-1.58,12.65,12.65,0,0,0-2.87-.84,21.45,21.45,0,0,0-2.89-.32,25.2,25.2,0,0,0-4,.2,18.6,18.6,0,0,0-4,.94,13,13,0,0,0-3.54,1.9,9.52,9.52,0,0,0-1.25,1.21,8,8,0,0,0-1.72,3,6.16,6.16,0,0,0,0,3.46,8.24,8.24,0,0,0,1.09,2.35,9.69,9.69,0,0,0,1.73,1.94l.24.21a.25.25,0,0,1,.1.17.29.29,0,0,1,0,.2c-.28.33-.54.67-.79,1-.44-.26-.84-.53-1.19-.78-.16-.11-.3.08-.14.19.35.26.75.52,1.19.79-.13.17-.25.35-.37.52a1,1,0,0,1-.08.14,3.89,3.89,0,0,0-.34.61.88.88,0,0,0-.06.63.05.05,0,0,0,0,0,.27.27,0,0,0,.3.14.47.47,0,0,0,.28-.2.3.3,0,0,0,0-.34,3.35,3.35,0,0,1,.29-.78c.1-.18.2-.37.31-.55a30.71,30.71,0,0,0,7.72,3.31,25.68,25.68,0,0,0,5.84.62l.45-.37a22.74,22.74,0,0,1-6.24-.48,30.89,30.89,0,0,1-7.65-3.28,12.39,12.39,0,0,1,.71-1.07.26.26,0,0,1,.16-.11.32.32,0,0,1,.19,0,2,2,0,0,0,.58.27.12.12,0,0,0,.12,0,.11.11,0,0,0,0-.11s0-.07-.08-.09a2.11,2.11,0,0,1-.46-.21.36.36,0,0,1-.12-.18.26.26,0,0,1,0-.21c.14-.18.28-.37.43-.55.53-.65,1.08-1.29,1.64-1.93l-.3.41a8.63,8.63,0,0,0-.54,1,1.94,1.94,0,0,0-.22,1.06,1,1,0,0,0,.34.6,2,2,0,0,0,.61.37,4.93,4.93,0,0,0,2.57.08,7.16,7.16,0,0,0,2.42-.95,3.36,3.36,0,0,0,1.32-1.38,2,2,0,0,0-.09-1.84h0a.26.26,0,0,1,0-.27.23.23,0,0,1,.24-.12,12.84,12.84,0,0,0,3.95-.28,15.37,15.37,0,0,0,3.72-1.36,11.45,11.45,0,0,0,2.24-1.54,5.5,5.5,0,0,0,1.54-2.19,2.88,2.88,0,0,0,0-1.88A4.24,4.24,0,0,0,204.23,206.2Zm-.2,4.18a6.51,6.51,0,0,1-1.38,1.34,12.1,12.1,0,0,1-1.57,1,14.51,14.51,0,0,1-4.73,1.43,10.16,10.16,0,0,1-4.86-.55.5.5,0,0,0-.46.06.49.49,0,0,0-.19.39.48.48,0,0,0,.26.4,7.65,7.65,0,0,1,1,.58,3.2,3.2,0,0,1,.8.8,1.31,1.31,0,0,1,.2,1,1.94,1.94,0,0,1-.5.9,4.93,4.93,0,0,1-1.29.93,6.36,6.36,0,0,1-1.51.55,5.94,5.94,0,0,1-1.57.18,2.11,2.11,0,0,1-1.42-.53l0,0a1,1,0,0,1-.07-.9,4.57,4.57,0,0,1,.53-1.06c.23-.34.42-.62.58-.82a30.32,30.32,0,0,1,2.88-3c1-.94,2.08-1.85,3.16-2.72.86-.7,1.75-1.38,2.66-2a.56.56,0,0,0,.17-.26.46.46,0,0,0-.31-.54.45.45,0,0,0-.34,0A11.74,11.74,0,0,0,194,209a52.29,52.29,0,0,0-4.4,4.28c-1.39,1.5-2.72,3-4,4.64l-.25.32c-.07.08-.13.17-.2.26a.26.26,0,0,1-.38,0,8.47,8.47,0,0,1-2.9-4.36,5.9,5.9,0,0,1,.21-3.68,8.67,8.67,0,0,1,2.11-3.07,11.06,11.06,0,0,1,4-2.29,21.16,21.16,0,0,1,4.53-1,23.65,23.65,0,0,1,5,.06,12.94,12.94,0,0,1,4.76,1.5,5.37,5.37,0,0,1,1.49,1.25,2.9,2.9,0,0,1,.72,1.75v0A3.07,3.07,0,0,1,204,210.38Z"/><path d="M209.73,210.44c-.36-.84-1.23-.52-.79.42,2.59,5.54,1.12,9.39-3.33,11.5h0a17.34,17.34,0,0,1-5.15,1.5l0,.3a15.85,15.85,0,0,0,5-1.35h0A9.63,9.63,0,0,0,210,219C211.54,216.29,211,213.17,209.73,210.44Z"/><path class="cls-22" d="M495.13,187.27h0l8,2a.72.72,0,0,0,.88-.53l3.22-13.21a4.37,4.37,0,0,0-.62-3.48l-.95-1.41h0l-4.23-6.09a13.9,13.9,0,0,0-3.92-3.76l-3.68-2.34-3.68-2.33a13.6,13.6,0,0,0-5.06-2L477.79,153h0l-1.67-.26a4.38,4.38,0,0,0-3.42.91l-10.59,8.54a.73.73,0,0,0-.11,1l5.24,6.39"/><path class="cls-22" d="M488.44,167.19a7.06,7.06,0,0,0,9.74-2.17l1.56-2.45a13.4,13.4,0,0,0-2.21-1.75l-3.68-2.34-3.68-2.33a13.82,13.82,0,0,0-2.33-1.19l-1.58,2.48a7.06,7.06,0,0,0,2.18,9.75Z"/><path class="cls-22" d="M491.26,178.1a6.67,6.67,0,0,0-1.95-1.86,6.87,6.87,0,0,0-5.68-.75.52.52,0,0,1-.67-.42,6.86,6.86,0,0,0-3.09-4.83,7,7,0,0,0-9.48,2,6.87,6.87,0,0,0-.79,6c.41,1.22,3.23,8.66,4.12,11a1,1,0,0,0,1,.65c2.49-.19,10.43-.79,11.71-.94a6.9,6.9,0,0,0,5.09-3.26,6.79,6.79,0,0,0,.91-4.46"/><path class="cls-22" d="M484.18,189.13,482.32,188a2.52,2.52,0,0,1,1.61-4.46h.9a.17.17,0,0,0,.17-.21l-.12-.82a3.66,3.66,0,0,0-3.34-3.13,8.22,8.22,0,0,0-3.3.44,14.26,14.26,0,0,1-3.83,1,9.36,9.36,0,0,1-4.12-.66"/><circle class="cls-22" cx="476.12" cy="174.89" r="2.39"/><path class="cls-22" d="M470.85,163.88l-16.17,25.44a2.47,2.47,0,0,0,.76,3.41l11.86,7.54,11.86,7.54a2.47,2.47,0,0,0,3.41-.76l16.17-25.45"/><line class="cls-22" x1="465.62" y1="189.96" x2="485.43" y2="202.55"/><line class="cls-22" x1="457.53" y1="184.83" x2="462.59" y2="188.04"/><path d="M158.52,167.55c-3.37-1.65-15.05-6.33-20.81-5.94a1.22,1.22,0,0,0-1.12,1c-.85,4.3-4.1,8.71-8.7,11.8S118,178.84,113.67,178a1.25,1.25,0,0,0-1.34.67c-2.54,5.18-2.63,17.76-2.37,21.51a1.2,1.2,0,0,0,.56,1,20.32,20.32,0,0,0,10.88,2.58,1.22,1.22,0,0,0,1.16-1c.21-1.11.6-3.9.86-6.52,1.8,2.91,4.24,8.17,6.3,12.62,2.49,5.39,5.08,11,7.1,14a1.23,1.23,0,0,0,1.71.33L169,202.67h0a1.22,1.22,0,0,0,.33-1.7l0-.06c-2-3-6.19-7.49-10.2-11.8-3.35-3.6-7.29-7.84-9.31-10.6,2.53.75,5.26,1.44,6.37,1.67a1.24,1.24,0,0,0,1.36-.7,20.4,20.4,0,0,0,1.73-11A1.23,1.23,0,0,0,158.52,167.55Zm-2.91,10c-2.05-.49-5.75-1.5-8-2.3a1.23,1.23,0,0,0-1.62,1.4c.5,2.44,4.58,7,11.24,14.13,3.54,3.8,7.19,7.73,9.3,10.56l-28.34,19c-1.82-3-4.07-7.89-6.26-12.61-4.11-8.88-6.76-14.37-8.82-15.75a1.23,1.23,0,0,0-1.91,1c-.11,2.38-.57,6.19-.89,8.27a18.53,18.53,0,0,1-8-1.89c-.25-4.94.15-14.34,1.82-18.81a16.69,16.69,0,0,0,2.13.14c-.34,1.68-.62,3.52-.81,4.92a1.23,1.23,0,0,0,1,1.38,1.19,1.19,0,0,0,.85-.2,1.23,1.23,0,0,0,.53-.85c.29-2.11.61-4,.92-5.41a24.69,24.69,0,0,0,10.4-4.1c4.87-3.27,8.29-7.74,9.52-12.39,4.77.14,13.63,3.33,18.1,5.43A18.49,18.49,0,0,1,155.61,177.55Z"/><path d="M155.64,194.47a1.23,1.23,0,0,0,.08-1.73l0,0a1.22,1.22,0,0,0-1.79,1.67l0,0a1.2,1.2,0,0,0,1.58.19Z"/><path d="M116.42,188a1.23,1.23,0,0,0-1.33,1.07.35.35,0,0,1,0,.06,1.23,1.23,0,0,0,1.1,1.34,1.22,1.22,0,0,0,1.34-1.07s0,0,0-.07A1.23,1.23,0,0,0,116.42,188Z"/><path d="M156.29,195.15a1.22,1.22,0,0,0-.07,1.73c1.3,1.41,2.34,2.56,3.27,3.62l.74.84a1.22,1.22,0,0,0,1.6.21l.13-.09a1.22,1.22,0,0,0,.11-1.73l-.74-.85c-1-1.07-2-2.24-3.31-3.66A1.22,1.22,0,0,0,156.29,195.15Z"/><path d="M143.57,179.38a7.15,7.15,0,0,0-1.41-.58c-.49-.15-.77-.24-.88-.41s-.1-.47-.05-1a7.09,7.09,0,0,0,0-1.53,3.3,3.3,0,0,0-1.78-2.45,3,3,0,0,0-3,.42l0,0c-3.24,2.17-4.25,4.44-4.45,6.17l-.19.12-.17.12c-1.69-.47-4.19-.39-7.45,1.82a3,3,0,0,0-1.52,2.62,3.27,3.27,0,0,0,1.6,2.57,6.38,6.38,0,0,0,1.41.58c.49.15.77.25.88.42s.1.46,0,1a7,7,0,0,0,0,1.52,3.31,3.31,0,0,0,1.78,2.46,3,3,0,0,0,3-.42l0,0c3.24-2.18,4.25-4.44,4.45-6.18l.18-.11.18-.13c1.68.47,4.16.39,7.4-1.79l0,0a3,3,0,0,0,1.53-2.62A3.29,3.29,0,0,0,143.57,179.38Zm-10.33,7.73a7.7,7.7,0,0,1-3.22,3.66l0,0c-.27.18-.52.27-.63.22a.88.88,0,0,1-.36-.55,4.74,4.74,0,0,1,0-1,3.73,3.73,0,0,0-.46-2.54,3.69,3.69,0,0,0-2.19-1.39,4.2,4.2,0,0,1-.92-.36.93.93,0,0,1-.37-.54c0-.12.17-.31.45-.5l0,0a7.7,7.7,0,0,1,4.61-1.6,3.85,3.85,0,0,0,.56,2.95A3.89,3.89,0,0,0,133.24,187.11Zm1.42-2.63a1.37,1.37,0,1,1,.37-1.9A1.37,1.37,0,0,1,134.66,184.48Zm8.06-2.44c0,.12-.17.32-.45.5l0,0a7.59,7.59,0,0,1-4.61,1.59,3.81,3.81,0,0,0-3.07-4.57,7.62,7.62,0,0,1,3.26-3.69c.27-.19.52-.28.63-.23a.94.94,0,0,1,.36.55,4.73,4.73,0,0,1,0,1,3.21,3.21,0,0,0,2.64,3.93,5.3,5.3,0,0,1,.93.36A1,1,0,0,1,142.72,182Z"/><g id="g819"><g id="g821"><path id="path823" class="cls-22" d="M361.56,80l-3.5,8.93"/></g><g id="g825"><path id="path827" class="cls-22" d="M366,81.71l-2.14,5.47"/></g><g id="g829"><g class="cls-23"><g id="g831"><g id="g837"><path id="path839" class="cls-22" d="M337.55,105l-.44,1.11h0l-1.68,4.3A2.07,2.07,0,0,0,336.6,113l24.92,9.74a2.44,2.44,0,0,0,3.16-1.38l1.54-4,6.48-16.57a39.94,39.94,0,0,1,8.69-13.42,7.63,7.63,0,0,0-1.65-2.53L376,81.07"/></g><g id="g841"><path id="path843" class="cls-22" d="M354.59,72.69l-5.36.31a7.68,7.68,0,0,0-2.92.74,40.05,40.05,0,0,1-2.72,15.76L339,101.32"/></g><g id="g845"><path id="path847" class="cls-22" d="M358.33,68.35h0a4.12,4.12,0,0,0-2.39,1.53L355.07,71a2.41,2.41,0,0,0,.27,3.22l7.16,6.64a3.24,3.24,0,0,0,.71.5C362.38,79.9,359.24,74.06,358.33,68.35Z"/></g><g id="g849"><path id="path851" class="cls-22" d="M376.93,78.09a4.16,4.16,0,0,0-.72-2.75c-4.53,3.58-10.81,5.74-12.41,6.26a3.56,3.56,0,0,0,.86.11l9.76,0a2.39,2.39,0,0,0,2.38-2.18Z"/></g><g id="g853"><path id="path855" class="cls-22" d="M362.5,80.87a3.2,3.2,0,0,0,2.16.84"/></g><g id="g857"><path id="path859" class="cls-22" d="M376.21,75.34a4.29,4.29,0,0,0-.88-.93,30,30,0,0,0-15.72-6.15,4.58,4.58,0,0,0-1.28.09"/></g><g id="g861"><path id="path863" class="cls-22" d="M372.11,78a107.48,107.48,0,0,0-12.58-4.92"/></g><g id="g865"><path id="path867" class="cls-22" d="M364.13,110.65a13.14,13.14,0,0,1-2.15-5.82,1.43,1.43,0,0,0-.88-1.19L350.24,99.4a1.38,1.38,0,0,0-1.45.27,13.25,13.25,0,0,1-5.53,2.82,1.38,1.38,0,0,0-.95.84l-2.16,5.51a1.38,1.38,0,0,0,.79,1.8l19.37,7.57a1.38,1.38,0,0,0,1.79-.78l2.16-5.52A1.4,1.4,0,0,0,364.13,110.65Z"/></g><g id="g869"><path id="path871" class="cls-22" d="M381.71,93.6c.11-1,.19-2,.23-3a7.69,7.69,0,0,0-.55-3.16l-.05.05"/></g><g id="g873"><path id="path875" class="cls-22" d="M364.78,121.14h0l7.13,2.78a1.27,1.27,0,0,0,1.65-.72l1.37-3.5a135.92,135.92,0,0,0,6.24-22.23"/></g><g id="g877"><path id="path879" class="cls-22" d="M346.31,73.74a7.69,7.69,0,0,0-2.55,2c-7.44,8.73-13.94,24.51-14.57,26.13l-1.37,3.49a1.28,1.28,0,0,0,.72,1.66l7.13,2.78"/></g><g id="g881"><path id="path883" class="cls-22" d="M328.77,107.06l-.81,2.06a1.28,1.28,0,0,0,.73,1.66l4.51,1.77a1.29,1.29,0,0,0,1.66-.73l.57-1.46"/></g><g id="g885"><path id="path887" class="cls-22" d="M336.92,113.16l-.7,1.78a1.75,1.75,0,0,0,1,2.27l21.37,8.36a1.76,1.76,0,0,0,2.27-1l.7-1.78h0"/></g><g id="g889"><path id="path891" class="cls-22" d="M364.78,121.14l-.81,2.07a1.28,1.28,0,0,0,.73,1.66l4.51,1.76a1.28,1.28,0,0,0,1.66-.73l.81-2.07"/></g></g></g></g></g><path class="cls-22" d="M272.66,69q-1.2-2-2.42-3.68c-5.42-7.57-9-8.26-11.12-7.51s-4.44,3.59-3.8,12.87c.09,1.39.25,2.86.47,4.38a1.2,1.2,0,0,0,1.88.82h0a1.22,1.22,0,0,0,.5-1.16c-.2-1.41-.35-2.78-.44-4.07a25.3,25.3,0,0,1,.38-7.42c.29-1.13.85-2.56,1.9-2.94s2.39.37,3.33,1.06a25.11,25.11,0,0,1,5,5.48c.75,1,1.51,2.2,2.25,3.42a1.21,1.21,0,0,0,1.13.57h0A1.19,1.19,0,0,0,272.66,69Z"/><path class="cls-22" d="M271.05,74.69l-10.39,3.73A2,2,0,0,0,259.45,81l.36,1a2,2,0,0,0,2.57,1.21l10.39-3.73A2,2,0,0,0,274,76.9l-.36-1A2,2,0,0,0,271.05,74.69Z"/><path class="cls-22" d="M262,69.56l-4.24,1.53c.09,1.16.23,2.37.41,3.63a1.22,1.22,0,0,1-.5,1.16h0a1.2,1.2,0,0,1-1.88-.82c-.15-1.07-.28-2.12-.37-3.13l-1.5.54a1.77,1.77,0,0,0-1.15,2l2.94,17.36A4.15,4.15,0,0,0,261.2,95l20-7.19a4.14,4.14,0,0,0,2.19-6l-8.78-15.25a1.77,1.77,0,0,0-2.14-.79l-1.49.54c.57.84,1.14,1.73,1.7,2.66a1.2,1.2,0,0,1-2.05,1.25c-.66-1.08-1.33-2.11-2-3.06l-4.24,1.52"/><path class="cls-22" d="M275.1,80l-1.55-4.33a1.8,1.8,0,0,0-2.29-1.08L260.44,78.5a1.79,1.79,0,0,0-1.07,2.28l2.88,8a1.79,1.79,0,0,0,2.29,1.07L275.36,86a1.8,1.8,0,0,0,1.07-2.29L276,82.38"/><path d="M149.27,106.94l.64-.4,1.64,2.61-.63.4Z"/><path d="M150.28,104.8l.63-.4,2.33,3.69-.64.4Z"/><path d="M151.52,103.05l.64-.4,2.76,4.37-.64.41Z"/><path d="M153.64,102.68l.64-.4L156.6,106l-.63.4Z"/><path d="M156,102.69l.64-.4,1.64,2.61-.63.4Z"/><path d="M163.61,103.57l-1,.61-.52-.82-14.26,9,8.67,13.74a3.5,3.5,0,0,0,4.83,1.09l8.34-5.25a3.52,3.52,0,0,0,1.09-4.84l-.13-.21,1.17-1.75a7.21,7.21,0,0,0,.11-7.86l-1.34-2.12A5.08,5.08,0,0,0,163.61,103.57Zm6.56,13.93a2.76,2.76,0,0,1-.86,3.8L161,126.56a2.76,2.76,0,0,1-3.8-.86l-8.26-13.1,13-8.2Zm1.14-9.82a6.46,6.46,0,0,1-.09,7l-1,1.46L169.5,115l.68-1a5.22,5.22,0,0,0,.22-5.44l-.66.37h0a4.45,4.45,0,0,1-.19,4.65l-.49.73-4.94-7.83,1-.6a2.32,2.32,0,0,1,3.07.55l.6-.46a3.09,3.09,0,0,0-4.08-.73l-1,.61-.67-1.06,1-.61a4.33,4.33,0,0,1,6,1.35Z"/><path d="M168.55,107.06l.64-.4.8,1.27-.64.4Z"/><path d="M163.14,117.38c-.15.06-.3.27-.44.65a1.7,1.7,0,0,0-.1.47,1.57,1.57,0,0,1-.13-.2.19.19,0,0,0-.08-.07.16.16,0,0,0-.1,0,.1.1,0,0,0-.07.07,2.1,2.1,0,0,0-.19.53,1.36,1.36,0,0,0-.18-.28s0,0-.07,0a.06.06,0,0,0,0,.06,1.27,1.27,0,0,0,0,.26l.07.23a2,2,0,0,0,.09.25c0,.12.07.2.08.24a.11.11,0,0,0,.17.06.13.13,0,0,0,.1-.15,1.89,1.89,0,0,1,.07-.79l.13.2.14.2a.11.11,0,0,0,.16,0,.15.15,0,0,0,.08-.16,3,3,0,0,1,0-.67.73.73,0,0,1,.24-.51.16.16,0,0,1,.11,0,.15.15,0,0,1,.11,0,.28.28,0,0,1,.1.09.85.85,0,0,1,.09.14l.08.17a.84.84,0,0,1,.07.18l0,.16a1.55,1.55,0,0,1,0,.15s0,.09,0,.09.05.09.1.08.09,0,.08-.12a2.54,2.54,0,0,0-.07-.37,3.85,3.85,0,0,0-.16-.48,1,1,0,0,0-.27-.39A.34.34,0,0,0,163.14,117.38Z"/><path d="M160.24,113.49a2.89,2.89,0,0,0-1.05.38,4.84,4.84,0,0,0-.94.69,8.48,8.48,0,0,0-.78.82,9.31,9.31,0,0,0-.89,1.3,7.31,7.31,0,0,0-.65,1.46,4.15,4.15,0,0,0-.16,2.22,3.28,3.28,0,0,0,.55,1.25,2.39,2.39,0,0,0,1.07.82,3.37,3.37,0,0,0,1,.21,3.8,3.8,0,0,0,1-.08l.12,0a.08.08,0,0,1,.08,0,.1.1,0,0,1,0,.06c0,.16.08.32.13.48a4.79,4.79,0,0,1-.52.19c-.07,0,0,.11,0,.09s.33-.11.52-.19c0,.08,0,.16.08.24s0,0,0,.06a1.74,1.74,0,0,0,.11.25.34.34,0,0,0,.18.16h0a.11.11,0,0,0,.11-.06.17.17,0,0,0,0-.14.14.14,0,0,0-.1-.08,1.27,1.27,0,0,1-.18-.27c0-.08-.07-.15-.1-.23a11.74,11.74,0,0,0,2.85-1.62,9.89,9.89,0,0,0,1.57-1.66v-.23a8.88,8.88,0,0,1-1.63,1.82,12,12,0,0,1-2.82,1.61c-.06-.16-.12-.31-.17-.47a.08.08,0,0,1,0-.08.12.12,0,0,1,.05,0,.94.94,0,0,0,.22-.12s0,0,0,0l0,0h0l-.18.1a.11.11,0,0,1-.08,0,.09.09,0,0,1-.06-.06,2,2,0,0,0-.07-.26c-.07-.32-.15-.64-.21-1a1.39,1.39,0,0,0,.06.19,4.16,4.16,0,0,0,.16.4.79.79,0,0,0,.29.31.34.34,0,0,0,.26,0,1,1,0,0,0,.26-.1,1.88,1.88,0,0,0,.63-.78,2.92,2.92,0,0,0,.28-1,1.36,1.36,0,0,0-.12-.73.79.79,0,0,0-.6-.41h0a.11.11,0,0,1-.08-.07.08.08,0,0,1,0-.1,5.08,5.08,0,0,0,.84-1.3,5.44,5.44,0,0,0,.45-1.47,4.15,4.15,0,0,0,0-1.06,2,2,0,0,0-.32-1,1.08,1.08,0,0,0-.58-.44A1.67,1.67,0,0,0,160.24,113.49Zm1.26,1.05a2.25,2.25,0,0,1,.09.74,4,4,0,0,1-.06.72,5.69,5.69,0,0,1-.67,1.8,4,4,0,0,1-1.31,1.38.19.19,0,0,0-.1.16.22.22,0,0,0,.08.15.18.18,0,0,0,.19,0,3,3,0,0,1,.41-.17,1.09,1.09,0,0,1,.44-.06.47.47,0,0,1,.35.17.66.66,0,0,1,.16.36,1.61,1.61,0,0,1,0,.62,2.45,2.45,0,0,1-.18.6,2.14,2.14,0,0,1-.32.53.78.78,0,0,1-.5.32,0,0,0,0,1,0,0,.37.37,0,0,1-.3-.18,1.81,1.81,0,0,1-.2-.42l-.12-.37a12.4,12.4,0,0,1-.26-1.6c-.05-.54-.09-1.08-.1-1.62s0-.87,0-1.3a.21.21,0,0,0,0-.12.24.24,0,0,0-.11-.06.14.14,0,0,0-.13,0,.19.19,0,0,0-.07.12,4,4,0,0,0,0,1,19.11,19.11,0,0,0,.3,2.38c.14.78.31,1.56.5,2.33,0,0,0,.1,0,.16l0,.12a.11.11,0,0,1,0,.08.08.08,0,0,1-.07,0,3.24,3.24,0,0,1-2-.12,2.3,2.3,0,0,1-1.1-.93,3.37,3.37,0,0,1-.46-1.38,4.45,4.45,0,0,1,.22-1.77,8.4,8.4,0,0,1,.77-1.63,8.88,8.88,0,0,1,1.21-1.55,5.14,5.14,0,0,1,1.59-1.13,2.28,2.28,0,0,1,.74-.17,1.22,1.22,0,0,1,.72.19h0A1.22,1.22,0,0,1,161.5,114.54Z"/><path d="M162.86,112.78c-.34-.08-.45.26-.05.34,2.33.5,3.19,1.87,2.8,3.74h0a6.55,6.55,0,0,1-.75,2l.11.06a6.14,6.14,0,0,0,.76-1.88h0a3.71,3.71,0,0,0-.13-2.26A3.59,3.59,0,0,0,162.86,112.78Z"/><path d="M417.15,106.74a2,2,0,0,0,1.55,1.11c2.52.3,7.82,1.48,14.95,6s10.49,8.74,11.86,10.89a2,2,0,0,0,1.68.91,1.83,1.83,0,0,0,1.56-.85l1.32-2.1h0l.14-.22a11,11,0,0,0,1.05-5.14l3.18-5.08a14.29,14.29,0,0,0-4-19.35,3.12,3.12,0,0,0-5.18-3.25,14.3,14.3,0,0,0-19.18,4.79l-3.18,5.08a10.87,10.87,0,0,0-4.17,3.18,1.64,1.64,0,0,0-.14.22h0l-1.32,2.1A1.85,1.85,0,0,0,417.15,106.74Zm30,17.62a.73.73,0,0,1-.62-.34c-1.43-2.23-4.91-6.66-12.25-11.27s-12.84-5.82-15.47-6.13a.72.72,0,0,1-.57-.41.62.62,0,0,1,0-.59l.4-.63a2,2,0,0,0,1.33.76c2.53.3,7.83,1.48,15,6s10.5,8.74,11.86,10.89a1.9,1.9,0,0,0,.62.61,2.16,2.16,0,0,0,.65.26l-.4.63A.59.59,0,0,1,447.18,124.36Zm1.31-34.2c.9.57,1.17,1.2.87,2l-3.05-1.91A1.54,1.54,0,0,1,448.49,90.16Zm-3.42.79,4.21,2.64a13,13,0,0,1,4.1,18l-2.68,4.27c-1-2-3.94-6.23-11.44-10.94s-12.61-5.48-14.83-5.55l2.69-4.27A13,13,0,0,1,445.07,91Zm-21.64,9.63c.56,0,6-.4,15.17,5.34s11.21,10.82,11.4,11.35a9.53,9.53,0,0,1-.94,4.64.6.6,0,0,1-.51.35.72.72,0,0,1-.67-.34c-1.43-2.23-4.91-6.66-12.25-11.27s-12.84-5.82-15.47-6.13a.74.74,0,0,1-.6-.46.61.61,0,0,1,.09-.61A9.63,9.63,0,0,1,423.43,100.58Z"/><path d="M434.27,98.81l12.61,7.92a1.87,1.87,0,0,0,2.57-.59l2.64-4.2a1.86,1.86,0,0,0-.59-2.56l-12.61-7.92a1.85,1.85,0,0,0-2.56.59l-2.64,4.2A1.85,1.85,0,0,0,434.27,98.81Zm3.11-6.1a.62.62,0,0,1,.85-.2l12.61,7.92a.62.62,0,0,1,.2.85l-2.64,4.2a.63.63,0,0,1-.86.2l-12.61-7.92a.61.61,0,0,1-.19-.85Z"/><path d="M339.62,67,337,64.13l-3.84-.71L336,60.78l.7-3.84,2.65,2.87,3.84.7-2.87,2.65Zm4.1-1.32L344.94,67l.33-1.78L346.59,64l-1.77-.33-1.23-1.32-.32,1.77-1.33,1.22ZM342,57l1,1,.26-1.38,1-.95-1.38-.25-.95-1-.26,1.38-1,.95Z"/><path d="M513.53,174.38l1.48-3.62L514,167l3.62,1.47,3.77-1-1.47,3.61,1,3.78-3.61-1.47Zm2.94,3.15-.68,1.67,1.74-.46,1.67.68-.46-1.74.68-1.67-1.74.45-1.67-.68Zm7.07-5.26-.53,1.3,1.36-.35,1.3.53-.36-1.36.53-1.3-1.35.35-1.3-.52Z"/><path d="M89.12,181.07l-3.77-1-3.62,1.45,1-3.77-1.45-3.62,3.77,1,3.63-1.44-1,3.77Zm2.76-3.3,1.75.47L93,176.56l.47-1.74-1.68.67L90,175l.67,1.68-.47,1.74ZM85.8,171.4l1.35.36-.52-1.3L87,169.1l-1.31.52-1.35-.36.52,1.3-.37,1.36Z"/><g id="Layer_1"><g id="_498805104" data-name=" 498805104"><path id="_498805200" data-name=" 498805200" class="cls-24" d="M238.55,55.33l2.3,2.17a.12.12,0,0,0,.09,0l3.15-.15-2.17,2.3a.14.14,0,0,0,0,.09l.15,3.15-2.3-2.16s-.06,0-.09,0l-3.16.14,2.17-2.3a.12.12,0,0,0,0-.09Z"/><path id="_498805152" data-name=" 498805152" class="cls-24" d="M228.93,122.36l-.69-3.23,2,2.63a.11.11,0,0,0,.12,0l3.23-.69-2.63,2a.13.13,0,0,0,0,.12l.69,3.22-2-2.62a.11.11,0,0,0-.12,0l-3.22.69,2.62-2a.12.12,0,0,0,.05-.12Z"/><path id="_498804912" data-name=" 498804912" class="cls-24" d="M220.23,118.5l2.17-2.3a.14.14,0,0,0,0-.09l-.14-3.15,2.3,2.16a.09.09,0,0,0,.08,0l3.16-.15-2.17,2.3a.14.14,0,0,0,0,.09l.14,3.15-2.29-2.16a.12.12,0,0,0-.09,0Z"/><path id="_498805176" data-name=" 498805176" class="cls-24" d="M217.58,124.34a.12.12,0,0,0,0-.13l-1.3-6.07,3.76,5a.14.14,0,0,0,.12,0l6.08-1.3-4.95,3.76a.11.11,0,0,0,0,.12l1.3,6.08-3.76-4.95a.12.12,0,0,0-.12,0l-6.08,1.31Z"/></g></g><path class="cls-25" d="M360.7,97.06a1.46,1.46,0,0,0-1.08.06,2.75,2.75,0,0,0-.6.29,2.52,2.52,0,0,1,.11-.31.32.32,0,0,0,0-.14.24.24,0,0,0-.07-.12.19.19,0,0,0-.15,0,3,3,0,0,0-.73.24,2.51,2.51,0,0,0,.16-.42.09.09,0,0,0,0-.1.09.09,0,0,0-.1,0,2.09,2.09,0,0,0-.25.26l-.19.27c0,.06-.12.17-.21.31a2,2,0,0,1-.18.29.15.15,0,0,0,.07.24.18.18,0,0,0,.25,0,2.81,2.81,0,0,1,.93-.59c0,.07-.06.18-.11.32l-.11.32a.15.15,0,0,0,.1.2.19.19,0,0,0,.24,0,3.49,3.49,0,0,1,.74-.56,1,1,0,0,1,.75-.18.23.23,0,0,1,.15.09.2.2,0,0,1,.06.15,1.1,1.1,0,0,1,0,.18,1.19,1.19,0,0,1-.08.22l-.11.23a2,2,0,0,1-.14.22l-.14.2a1.25,1.25,0,0,0-.12.17c0,.07-.08.1-.08.12a.11.11,0,0,0,0,.18.13.13,0,0,0,.19,0,2.94,2.94,0,0,0,.34-.39,3.66,3.66,0,0,0,.39-.58,1.38,1.38,0,0,0,.21-.63A.47.47,0,0,0,360.7,97.06Z"/><path class="cls-25" d="M362.52,90.6a4.21,4.21,0,0,0-1.3-.84,6.83,6.83,0,0,0-1.56-.45,12.14,12.14,0,0,0-1.56-.16,13.34,13.34,0,0,0-2.17.12,9.94,9.94,0,0,0-2.15.53,6.7,6.7,0,0,0-1.89,1,4.57,4.57,0,0,0-.67.65,4.48,4.48,0,0,0-.91,1.65,3.3,3.3,0,0,0,0,1.87,4.23,4.23,0,0,0,.6,1.27,5.49,5.49,0,0,0,.94,1l.14.11a.19.19,0,0,1,.05.1.1.1,0,0,1,0,.1l-.42.56c-.23-.14-.45-.28-.64-.42s-.16,0-.08.11.41.27.65.41l-.19.29-.05.07-.18.33a.54.54,0,0,0,0,.35v0c.05.06.1.09.16.07a.23.23,0,0,0,.16-.11.15.15,0,0,0,0-.18,1.77,1.77,0,0,1,.15-.42l.16-.3a16.93,16.93,0,0,0,4.19,1.76,13.69,13.69,0,0,0,3.15.31l.24-.2a12.25,12.25,0,0,1-3.37-.24,16.53,16.53,0,0,1-4.14-1.74c.12-.2.24-.39.37-.58a.24.24,0,0,1,.09-.06.22.22,0,0,1,.11,0,1.09,1.09,0,0,0,.31.14.06.06,0,0,0,.07,0,.08.08,0,0,0,0-.11,1.12,1.12,0,0,1-.25-.11.14.14,0,0,1-.07-.1.12.12,0,0,1,0-.11l.22-.3.88-1-.16.23a4.19,4.19,0,0,0-.29.52,1.06,1.06,0,0,0-.11.57.55.55,0,0,0,.19.32.94.94,0,0,0,.33.2,2.7,2.7,0,0,0,1.39,0,4,4,0,0,0,1.3-.53,1.8,1.8,0,0,0,.7-.75,1,1,0,0,0-.06-1h0a.14.14,0,0,1,0-.15.11.11,0,0,1,.13-.06,6.93,6.93,0,0,0,2.13-.17,7.91,7.91,0,0,0,2-.75,5.92,5.92,0,0,0,1.2-.84,3,3,0,0,0,.82-1.19,1.52,1.52,0,0,0,0-1A2.39,2.39,0,0,0,362.52,90.6Zm-.09,2.26a3.37,3.37,0,0,1-.73.73,6.77,6.77,0,0,1-.84.53,7.77,7.77,0,0,1-2.54.8,5.58,5.58,0,0,1-2.63-.28.27.27,0,0,0-.25,0,.3.3,0,0,0-.1.21.25.25,0,0,0,.15.22,4.17,4.17,0,0,1,.54.31,1.9,1.9,0,0,1,.43.42.7.7,0,0,1,.11.53.94.94,0,0,1-.26.49,2.47,2.47,0,0,1-.69.51,3,3,0,0,1-.81.3,3.24,3.24,0,0,1-.85.11,1.12,1.12,0,0,1-.76-.29,0,0,0,0,1,0,0,.52.52,0,0,1-.05-.49,3,3,0,0,1,.28-.57,5,5,0,0,1,.31-.44,16,16,0,0,1,1.54-1.65c.55-.51,1.11-1,1.69-1.47s.93-.76,1.42-1.11a.42.42,0,0,0,.09-.14.29.29,0,0,0,0-.18.22.22,0,0,0-.14-.11.22.22,0,0,0-.18,0,6.81,6.81,0,0,0-1.11.8,28.7,28.7,0,0,0-2.35,2.33c-.74.82-1.45,1.66-2.14,2.52,0,.06-.09.12-.14.17l-.1.14a.21.21,0,0,1-.1.06.17.17,0,0,1-.11,0A4.69,4.69,0,0,1,350.48,95a3.13,3.13,0,0,1,.1-2,4.6,4.6,0,0,1,1.12-1.67,5.94,5.94,0,0,1,2.13-1.25,11.1,11.1,0,0,1,2.44-.53,12.38,12.38,0,0,1,2.72,0,7.07,7.07,0,0,1,2.57.79,3.09,3.09,0,0,1,.82.67,1.61,1.61,0,0,1,.39,1h0A1.62,1.62,0,0,1,362.43,92.86Z"/><path class="cls-25" d="M365.51,92.87c-.2-.45-.67-.27-.42.23,1.42,3,.65,5.08-1.74,6.23h0a9.47,9.47,0,0,1-2.77.83l0,.16a8.5,8.5,0,0,0,2.71-.75h0a5.23,5.23,0,0,0,2.36-2A5,5,0,0,0,365.51,92.87Z"/></g></g></svg>