<svg id="Capa_1" enable-background="new 0 0 512 512" height="512" viewBox="0 0 512 512" width="512" xmlns="http://www.w3.org/2000/svg"><g><g><path d="m331.35 173.339 17.85-18.739c2.85-2.992 2.735-7.728-.257-10.579-2.992-2.849-7.727-2.734-10.578.257l-17.851 18.74c-2.85 2.992-2.735 7.728.257 10.578 1.449 1.379 3.305 2.064 5.16 2.064 1.976.001 3.948-.778 5.419-2.321z"/><path d="m420.099 244.564-8.703 9.591c-2.777 3.06-2.547 7.792.513 10.569 1.433 1.301 3.232 1.942 5.026 1.942 2.037 0 4.067-.827 5.543-2.454l8.703-9.591c2.777-3.06 2.547-7.792-.513-10.569-3.061-2.778-7.793-2.548-10.569.512z"/><path d="m309.45 228.707c1.425 1.266 3.198 1.887 4.965 1.887 2.064 0 4.12-.85 5.598-2.515l69.714-78.513c2.743-3.089 2.463-7.819-.627-10.562-3.09-2.745-7.819-2.462-10.563.627l-69.714 78.513c-2.744 3.09-2.463 7.82.627 10.563z"/><path d="m466.2 94.901v-39.389h9.068c6.362 0 11.537-5.176 11.537-11.538v-32.436c.001-6.362-5.175-11.538-11.536-11.538h-345.968c-4.132 0-7.482 3.349-7.482 7.482s3.35 7.482 7.482 7.482h342.54v25.583h-431.683v-25.583h55.39c4.132 0 7.482-3.35 7.482-7.482 0-4.133-3.35-7.482-7.482-7.482h-58.817c-6.361 0-11.537 5.176-11.537 11.538v32.437c0 6.362 5.176 11.538 11.537 11.538h9.069v220.93h-9.068c-6.362 0-11.537 5.176-11.537 11.538v21.183c0 6.362 5.176 11.538 11.537 11.538h9.068v183.817c0 4.133 3.35 7.482 7.482 7.482h405.436c4.132 0 7.482-3.35 7.482-7.482v-183.818h9.068c6.362 0 11.537-5.176 11.537-11.538v-21.183c0-6.362-5.176-11.538-11.537-11.538h-9.068v-131.843c0-4.133-3.35-7.482-7.482-7.482s-7.482 3.349-7.482 7.482v131.843h-162.414v-131.843c0-4.133-3.35-7.482-7.482-7.482s-7.482 3.349-7.482 7.482v131.843h-213.094v-154.024c5.144 3.35 11.275 5.305 17.858 5.305 10.193 0 19.315-4.671 25.34-11.984 6.025 7.313 15.147 11.984 25.34 11.984s19.315-4.671 25.34-11.984c6.025 7.313 15.147 11.984 25.34 11.984s19.315-4.671 25.34-11.984c6.025 7.313 15.147 11.984 25.34 11.984s19.315-4.671 25.34-11.984c6.025 7.313 15.147 11.984 25.34 11.984s19.315-4.671 25.34-11.984c6.025 7.313 15.147 11.984 25.339 11.984 10.193 0 19.315-4.671 25.34-11.984 6.025 7.313 15.147 11.984 25.34 11.984s19.315-4.671 25.34-11.984c6.025 7.313 15.147 11.984 25.34 11.984 18.095 0 32.819-14.724 32.819-32.822zm-14.964 402.135h-390.472v-176.335h390.472zm20.606-205.63v14.33h-431.684v-14.33zm-375.363-196.505c0 9.847-8.011 17.858-17.857 17.858-9.847 0-17.858-8.011-17.858-17.858v-10h35.715zm50.68 0c0 9.847-8.011 17.858-17.857 17.858-9.847 0-17.858-8.011-17.858-17.858v-10h35.715zm50.679 0c0 9.847-8.011 17.858-17.857 17.858-9.847 0-17.858-8.011-17.858-17.858v-10h35.715zm50.68 0c0 9.847-8.011 17.858-17.857 17.858-9.847 0-17.857-8.011-17.857-17.858v-10h35.715v10zm50.679 0c0 9.847-8.011 17.858-17.857 17.858-9.847 0-17.857-8.011-17.857-17.858v-10h35.715v10zm50.68 0c0 9.847-8.011 17.858-17.858 17.858s-17.857-8.011-17.857-17.858v-10h35.715zm50.679 0c0 9.847-8.011 17.858-17.858 17.858s-17.857-8.011-17.857-17.858v-10h35.715zm-339.792-24.965v-14.424h390.472v14.424zm354.757 24.965v-10h35.715v10c0 9.847-8.011 17.858-17.858 17.858s-17.857-8.011-17.857-17.858z"/><path d="m256 470.862c34.183 0 61.993-27.811 61.993-61.994s-27.81-61.993-61.993-61.993-61.993 27.81-61.993 61.993 27.81 61.994 61.993 61.994zm0-109.023c25.932 0 47.029 21.097 47.029 47.029s-21.097 47.03-47.029 47.03-47.029-21.097-47.029-47.03c0-25.932 21.097-47.029 47.029-47.029z"/></g></g></svg>