<?xml version="1.0" encoding="iso-8859-1"?>
<!-- Generator: Adobe Illustrator 19.0.0, SVG Export Plug-In . SVG Version: 6.00 Build 0)  -->
<svg version="1.1" id="Capa_1" xmlns="http://www.w3.org/2000/svg" xmlns:xlink="http://www.w3.org/1999/xlink" x="0px" y="0px"
	 viewBox="0 0 448 448" style="enable-background:new 0 0 448 448;" xml:space="preserve">
<g>
	<g>
		<polygon points="64,32 64,80 80,80 80,48 352,48 352,80 368,80 368,32 		"/>
	</g>
</g>
<g>
	<g>
		<rect x="128" y="272" width="192" height="16"/>
	</g>
</g>
<g>
	<g>
		<rect x="128" y="336" width="192" height="16"/>
	</g>
</g>
<g>
	<g>
		<rect x="48" y="144" width="16" height="32"/>
	</g>
</g>
<g>
	<g>
		<path d="M408,96H40c-22.064,0-40,17.936-40,40v184h64v96h320v-96h64V136C448,113.952,430.064,96,408,96z M368,400H80V224h288V400z
			 M432,304h-48v-96H64v96H16V136c0-13.232,10.768-24,24-24h368c13.232,0,24,10.768,24,24V304z"/>
	</g>
</g>
<g>
</g>
<g>
</g>
<g>
</g>
<g>
</g>
<g>
</g>
<g>
</g>
<g>
</g>
<g>
</g>
<g>
</g>
<g>
</g>
<g>
</g>
<g>
</g>
<g>
</g>
<g>
</g>
<g>
</g>
</svg>
